<svg width="1364" height="414" viewBox="0 0 1364 414" fill="none" xmlns="http://www.w3.org/2000/svg">
<g clip-path="url(#clip0_148_17)">
<path d="M1269.36 242.391C1270.03 257.899 1259.62 271.427 1241.18 279.675C1230.11 284.294 1217.7 286.604 1204.95 286.604C1192.54 286.604 1179.12 284.294 1168.05 279.345C1151.28 271.756 1138.53 258.888 1132.83 244.041C1141.22 242.722 1149.94 241.401 1158.32 240.082C1162.68 247.011 1169.73 252.95 1178.45 256.909C1194.21 264.168 1215.35 264.168 1231.12 257.239C1235.14 255.259 1244.87 250.31 1244.53 243.381C1244.53 237.443 1237.82 229.524 1225.08 225.235C1219.37 223.254 1211.99 221.935 1203.95 220.615C1183.82 217.316 1158.66 213.027 1145.91 192.9C1138.87 181.682 1137.52 169.804 1141.88 158.585C1146.92 146.048 1159.66 135.819 1175.77 131.53C1197.57 125.591 1222.73 128.561 1241.18 139.448C1254.93 147.367 1265 159.575 1269.36 172.773C1260.97 174.422 1252.92 176.403 1244.87 178.052C1241.85 171.123 1236.15 164.854 1228.76 160.565C1215.68 152.977 1197.57 150.996 1182.48 154.956C1173.76 157.266 1167.05 162.215 1165.04 167.494C1163.35 171.453 1164.02 175.413 1167.05 180.032C1173.76 190.59 1191.2 193.559 1208.31 196.529C1217.37 197.849 1225.75 199.498 1233.46 202.138C1254.59 209.397 1268.68 225.235 1269.36 242.391Z" fill="white"/>
<path d="M978.91 219.296V128.561H1003.74V219.296C1003.74 243.051 1023.19 262.188 1047.34 262.188C1071.15 262.188 1090.62 243.051 1090.62 219.296V128.561H1115.77V219.296C1115.77 256.579 1084.91 286.604 1047.34 286.604C1009.43 286.604 978.91 256.579 978.91 219.296Z" fill="white"/>
<path d="M922.165 312.633C927.868 307.014 931.896 300.733 934.581 293.792L956.402 302.055C951.371 315.607 942.305 327.177 929.549 336.431C915.784 346.347 899.672 351.967 883.221 351.967C869.116 351.967 855.018 347.67 842.934 340.398C826.822 330.151 815.742 317.591 810.032 301.064L832.193 292.801C835.211 301.725 840.581 309.327 847.966 315.607C858.043 324.202 869.788 328.168 883.553 328.168C898.329 328.168 911.417 322.879 922.165 312.633ZM960.769 128.522C960.769 141.083 957.745 153.644 951.703 164.551L950.361 166.865L951.703 169.509C957.745 180.417 960.769 192.647 960.769 205.208C961.108 225.371 953.046 244.542 938.277 259.086C923.507 273.629 904.032 281.562 883.221 281.562C840.249 281.562 805.333 247.516 805.333 205.538C805.001 192.316 808.69 179.095 815.071 167.526C819.77 159.262 826.151 151.991 833.536 145.71C847.295 134.803 864.756 128.522 882.21 128.522C899 128.522 914.773 133.481 928.207 143.067L934.581 147.363L936.263 140.092C936.934 136.125 937.266 132.489 937.266 128.522H960.769ZM921.826 242.559C932.567 231.651 938.277 216.776 937.266 201.902C936.934 197.275 936.263 192.977 934.581 188.681C931.563 180.087 926.525 172.154 919.479 165.873C909.403 156.619 896.986 151.66 882.882 151.66H881.878C868.784 151.991 856.029 156.949 845.952 165.873C839.239 172.154 834.207 180.087 831.183 188.681C829.508 193.969 828.497 199.588 828.497 205.208C828.836 219.751 834.539 233.303 844.609 243.22C854.686 253.136 868.445 258.424 883.221 258.424H884.224C897.99 258.424 911.756 252.805 921.826 242.559Z" fill="white"/>
<path d="M781.606 217.316C788.313 247.011 788.313 274.726 788.313 283.635C788.313 285.614 788.313 286.604 788.313 286.604H762.816C763.155 284.294 763.155 281.985 763.487 279.346C764.498 268.127 763.826 257.569 762.816 248.33C758.123 255.259 752.753 261.528 746.046 266.478C721.899 287.594 685.667 291.883 657.156 276.046C630.656 261.198 614.219 230.183 617.573 199.828C620.928 170.133 643.402 142.748 672.921 133.84C696.402 126.251 731.623 130.21 751.749 151.657C752.421 152.317 753.424 153.306 754.095 153.967C757.12 157.596 759.798 161.225 762.816 164.525C763.826 157.596 764.159 149.347 763.826 140.438C763.487 136.479 763.155 132.19 762.816 128.561H786.97C786.97 128.561 786.97 128.891 786.97 129.551C786.97 131.86 787.309 139.119 787.309 148.687C786.97 164.194 785.295 186.631 779.592 208.737C780.264 211.377 780.935 214.346 781.606 217.316ZM718.542 255.259C735.651 246.681 749.064 228.204 753.763 207.417L754.095 206.098L753.763 205.108C748.732 180.032 725.249 154.296 695.398 154.296C693.045 154.296 690.367 154.626 688.353 154.956C664.535 157.925 644.744 178.052 641.725 201.148C638.706 224.575 653.13 248.66 675.269 257.239C681.979 259.878 688.685 261.198 695.059 261.198C703.108 261.198 711.164 259.219 718.542 255.259Z" fill="white"/>
<path d="M606.381 128.561C610.071 128.561 613.761 128.891 617.451 129.22V153.306C613.761 152.646 610.071 152.317 606.381 152.317C591.286 152.317 577.198 157.925 566.799 168.154C556.4 178.382 550.362 192.57 550.362 207.417V286.934H526.211V128.561H550.362V150.996C564.787 137.139 584.578 128.561 606.381 128.561Z" fill="white"/>
<path d="M500.867 217.316C507.576 247.011 507.576 274.726 507.576 283.635C507.576 285.614 507.576 286.604 507.576 286.604H482.082C482.418 284.294 482.418 281.985 482.754 279.346C483.76 268.127 483.089 257.569 482.082 248.33C477.387 255.259 472.019 261.528 465.311 266.478C441.159 287.594 404.931 291.883 376.419 276.046C349.919 261.198 333.482 230.183 336.837 199.828C340.191 170.133 362.665 142.748 392.184 133.84C415.665 126.251 450.887 130.21 471.013 151.657C471.684 152.317 472.691 153.306 473.361 153.967C476.38 157.596 479.064 161.225 482.082 164.525C483.089 157.596 483.424 149.347 483.089 140.438C482.754 136.479 482.418 132.19 482.082 128.561H506.235C506.235 128.561 506.235 128.891 506.235 129.551C506.235 131.86 506.57 139.119 506.57 148.687C506.235 164.194 504.557 186.631 498.855 208.737C499.525 211.377 500.197 214.346 500.867 217.316ZM437.805 255.259C454.912 246.681 468.33 228.204 473.026 207.417L473.361 206.098L473.026 205.108C467.994 180.032 444.513 154.296 414.659 154.296C412.311 154.296 409.627 154.626 407.615 154.956C383.799 157.925 364.007 178.052 360.988 201.148C357.969 224.575 372.394 248.66 394.532 257.239C401.242 259.878 407.95 261.198 414.324 261.198C422.374 261.198 430.425 259.219 437.805 255.259Z" fill="white"/>
<path d="M157.481 196.859C150.772 167.494 150.772 140.438 151.108 131.53C151.108 129.551 151.108 128.561 151.108 128.561H175.93C175.93 130.87 175.595 133.18 175.259 135.819C174.588 147.038 174.924 157.266 175.93 166.504C180.626 159.575 185.994 153.636 192.367 148.687L192.702 148.357C216.183 127.901 251.74 123.612 279.917 139.119C306.081 153.636 322.182 184.321 319.163 214.017C315.81 243.381 293.335 270.107 264.487 279.346C241.342 286.604 206.791 282.645 187 261.528C185.994 260.868 185.323 260.209 184.652 259.219C181.633 255.589 178.949 252.29 175.93 248.66C175.259 255.919 174.588 263.838 174.924 272.417C175.259 276.706 175.595 348.669 175.93 352.299H152.114C152.114 349.659 151.778 274.067 152.114 264.498C152.45 248.991 154.127 226.884 159.494 205.438C158.822 202.798 158.152 199.828 157.481 196.859ZM219.538 159.575C202.765 168.154 189.683 185.971 184.987 206.428C184.987 206.757 184.987 206.757 184.987 206.757L184.652 207.747L184.987 209.067C190.019 233.483 212.829 258.889 242.683 258.889C245.031 258.889 247.044 258.889 249.392 258.559C272.873 255.259 292.329 235.793 295.348 212.696C298.031 189.93 283.942 166.175 262.139 157.596C255.765 154.956 249.056 153.636 242.683 153.636C234.632 153.636 226.918 155.616 219.538 159.575Z" fill="white"/>
<path d="M133.966 242.391C134.637 257.898 124.238 271.427 105.789 279.675C94.7195 284.294 82.308 286.604 69.5609 286.604C57.1498 286.604 47.2909 284.294 36.2213 279.345C19.4493 271.756 6.70251 258.888 1 244.041C9.38604 242.721 18.1075 241.401 26.4935 240.082C30.8543 247.011 37.8986 252.95 46.62 256.909C62.3858 264.168 79.9597 264.168 95.7258 257.239C99.751 255.259 109.479 250.31 109.144 243.381C109.144 237.442 102.434 229.524 89.6879 225.234C83.985 223.254 76.6051 221.935 68.5548 220.615C48.4283 217.316 21.8467 213.027 9.09995 192.9C2.05569 181.682 0.713931 169.803 5.07467 158.585C10.1063 146.048 22.8531 135.819 38.9543 131.53C60.7579 125.591 87.3396 128.561 105.789 139.448C119.542 147.367 129.605 159.575 133.966 172.773C125.58 174.422 117.529 176.403 109.479 178.052C106.46 171.123 100.757 164.854 93.3775 160.565C80.2954 152.976 60.7579 150.996 45.6631 154.956C36.9416 157.266 30.2328 162.214 28.2201 167.494C26.5429 171.453 27.2138 175.413 30.2328 180.032C36.9416 190.59 55.8081 193.559 72.9155 196.529C81.9724 197.848 90.3585 199.498 98.0734 202.138C119.207 209.397 133.295 225.234 133.966 242.391Z" fill="white"/>
<path d="M1329.46 194.67C1324.7 194.67 1320.23 193.813 1316.04 192.101C1311.85 190.388 1308.16 188.034 1304.98 185.037C1301.84 181.987 1299.38 178.454 1297.6 174.441C1295.81 170.427 1294.91 166.145 1294.91 161.597C1294.91 156.994 1295.81 152.713 1297.6 148.752C1299.38 144.738 1301.84 141.233 1304.98 138.236C1308.16 135.186 1311.85 132.804 1316.04 131.091C1320.23 129.379 1324.7 128.522 1329.46 128.522C1334.26 128.522 1338.73 129.379 1342.87 131.091C1347.06 132.804 1350.72 135.186 1353.86 138.236C1357.04 141.233 1359.53 144.738 1361.31 148.752C1363.1 152.713 1364 156.994 1364 161.597C1364 166.145 1363.1 170.427 1361.31 174.441C1359.53 178.454 1357.04 181.987 1353.86 185.037C1350.72 188.034 1347.06 190.388 1342.87 192.101C1338.73 193.813 1334.26 194.67 1329.46 194.67ZM1329.46 190.175C1333.59 190.175 1337.45 189.452 1341.03 188.007C1344.66 186.509 1347.85 184.448 1350.59 181.826C1353.33 179.204 1355.45 176.18 1356.95 172.755C1358.52 169.276 1359.31 165.557 1359.31 161.597C1359.31 157.636 1358.52 153.943 1356.95 150.518C1355.45 147.04 1353.33 143.989 1350.59 141.366C1347.85 138.744 1344.66 136.711 1341.03 135.266C1337.45 133.767 1333.59 133.018 1329.46 133.018C1325.32 133.018 1321.43 133.767 1317.8 135.266C1314.23 136.711 1311.07 138.744 1308.33 141.366C1305.59 143.989 1303.44 147.04 1301.87 150.518C1300.37 153.943 1299.61 157.636 1299.61 161.597C1299.61 165.557 1300.37 169.276 1301.87 172.755C1303.44 176.18 1305.59 179.204 1308.33 181.826C1311.07 184.448 1314.23 186.509 1317.8 188.007C1321.43 189.452 1325.32 190.175 1329.46 190.175Z" fill="white"/>
<path d="M1340.22 167.036L1345.29 168.658L1344.46 170.01C1341.4 174.875 1336.12 177.782 1330.22 177.782C1321.06 177.782 1313.62 170.55 1313.62 161.63C1313.62 152.71 1321.06 145.411 1330.22 145.411C1336.05 145.411 1341.47 148.385 1344.46 153.25L1345.29 154.534L1340.22 156.224L1339.66 155.413C1337.58 152.372 1334.04 150.547 1330.22 150.547C1323.97 150.547 1318.83 155.548 1318.83 161.63C1318.83 167.712 1323.97 172.713 1330.22 172.713C1334.04 172.713 1337.58 170.888 1339.66 167.78L1340.22 167.036Z" fill="white"/>
</g>
<defs>
<clipPath id="clip0_148_17">
<rect width="1364" height="414" fill="white"/>
</clipPath>
</defs>
</svg>
