<svg  viewBox="0 0 464 393" fill="none" xmlns="http://www.w3.org/2000/svg">
<path d="M431.859 355.246C432.086 360.599 428.556 365.268 422.292 368.116C418.533 369.71 414.319 370.508 409.991 370.508C405.777 370.508 401.221 369.71 397.463 368.002C391.768 365.382 387.44 360.941 385.504 355.815C388.351 355.36 391.312 354.904 394.16 354.449C395.64 356.84 398.032 358.89 400.993 360.257C406.346 362.763 413.522 362.763 418.875 360.371C420.242 359.688 423.544 357.979 423.431 355.588C423.431 353.537 421.153 350.804 416.825 349.323C414.889 348.64 412.383 348.184 409.649 347.729C402.816 346.59 394.274 345.109 389.946 338.162C387.554 334.289 387.098 330.189 388.579 326.317C390.287 321.989 394.615 318.458 400.082 316.978C407.485 314.927 416.027 315.952 422.292 319.711C426.961 322.444 430.378 326.658 431.859 331.214C429.011 331.784 426.278 332.467 423.544 333.037C422.519 330.645 420.583 328.481 418.078 327C413.636 324.381 407.485 323.697 402.36 325.064C399.399 325.861 397.121 327.57 396.438 329.392C395.868 330.759 396.096 332.125 397.121 333.72C399.399 337.365 405.321 338.39 411.13 339.415C414.205 339.87 417.052 340.44 419.672 341.351C426.847 343.856 431.631 349.323 431.859 355.246Z" fill="white"/>
<path d="M333.242 347.274V315.953H341.67V347.274C341.67 355.474 348.276 362.08 356.477 362.08C364.563 362.08 371.169 355.474 371.169 347.274V315.953H379.711V347.274C379.711 360.144 369.233 370.508 356.477 370.508C343.607 370.508 333.242 360.144 333.242 347.274Z" fill="white"/>
<path d="M313.92 379.391C315.856 377.455 317.222 375.291 318.134 372.899L325.537 375.746C323.828 380.416 320.753 384.402 316.425 387.591C311.756 391.008 306.289 392.944 300.708 392.944C295.924 392.944 291.141 391.464 287.041 388.958C281.574 385.427 277.815 381.099 275.879 375.405L283.396 372.557C284.421 375.633 286.243 378.252 288.749 380.416C292.166 383.377 296.152 384.744 300.822 384.744C305.833 384.744 310.275 382.922 313.92 379.391ZM327.017 315.952C327.017 320.28 325.992 324.608 323.942 328.367L323.487 329.164L323.942 330.075C325.992 333.833 327.017 338.048 327.017 342.376C327.131 349.323 324.398 355.929 319.386 360.94C314.375 365.952 307.769 368.685 300.708 368.685C286.129 368.685 274.284 356.954 274.284 342.489C274.171 337.934 275.423 333.378 277.587 329.392C279.182 326.544 281.346 324.039 283.852 321.875C288.521 318.116 294.444 315.952 300.366 315.952C306.061 315.952 311.414 317.661 315.97 320.963L318.134 322.444L318.703 319.938C318.931 318.572 319.045 317.319 319.045 315.952H327.017ZM313.806 355.246C317.45 351.487 319.386 346.362 319.045 341.237C318.931 339.642 318.703 338.161 318.134 336.681C317.109 333.72 315.4 330.986 313.008 328.822C309.592 325.633 305.378 323.925 300.594 323.925H300.252C295.81 324.039 291.482 325.747 288.066 328.822C285.788 330.986 284.079 333.72 283.054 336.681C282.485 338.503 282.143 340.439 282.143 342.376C282.257 347.387 284.193 352.056 287.61 355.473C291.027 358.89 295.697 360.712 300.708 360.712H301.05C305.719 360.712 310.389 358.776 313.806 355.246Z" fill="white"/>
<path d="M266.249 346.59C268.527 356.84 268.527 366.407 268.527 369.482C268.527 370.166 268.527 370.507 268.527 370.507H259.871C259.985 369.71 259.985 368.913 260.099 368.002C260.441 364.129 260.213 360.485 259.871 357.296C258.277 359.687 256.454 361.851 254.176 363.56C245.976 370.849 233.676 372.33 223.995 366.863C214.997 361.737 209.416 351.031 210.555 340.553C211.694 330.303 219.325 320.85 229.348 317.774C237.32 315.155 249.279 316.522 256.113 323.925C256.34 324.153 256.682 324.494 256.91 324.722C257.935 325.975 258.846 327.228 259.871 328.367C260.213 325.975 260.327 323.127 260.213 320.052C260.099 318.686 259.985 317.205 259.871 315.952H268.071C268.071 315.952 268.071 316.066 268.071 316.294C268.071 317.091 268.185 319.597 268.185 322.9C268.071 328.253 267.502 335.997 265.566 343.628C265.794 344.539 266.021 345.565 266.249 346.59ZM244.837 359.687C250.646 356.726 255.201 350.348 256.796 343.173L256.91 342.717L256.796 342.376C255.088 333.72 247.115 324.836 236.978 324.836C236.181 324.836 235.27 324.95 234.587 325.064C226.5 326.089 219.78 333.036 218.755 341.009C217.73 349.095 222.628 357.409 230.145 360.371C232.423 361.282 234.701 361.737 236.865 361.737C239.598 361.737 242.331 361.054 244.837 359.687Z" fill="white"/>
<path d="M206.756 315.953C208.009 315.953 209.261 316.067 210.514 316.181V324.495C209.261 324.267 208.009 324.153 206.756 324.153C201.631 324.153 196.847 326.09 193.316 329.62C189.786 333.151 187.736 338.049 187.736 343.174V370.622H179.535V315.953H187.736V323.698C192.633 318.914 199.353 315.953 206.756 315.953Z" fill="white"/>
<path d="M170.931 346.59C173.209 356.84 173.209 366.407 173.209 369.482C173.209 370.166 173.209 370.507 173.209 370.507H164.553C164.667 369.71 164.667 368.913 164.781 368.002C165.122 364.129 164.894 360.485 164.553 357.296C162.958 359.687 161.136 361.851 158.858 363.56C150.658 370.849 138.357 372.33 128.676 366.863C119.679 361.737 114.098 351.031 115.237 340.553C116.376 330.303 124.007 320.85 134.029 317.774C142.002 315.155 153.961 316.522 160.794 323.925C161.022 324.153 161.364 324.494 161.591 324.722C162.617 325.975 163.528 327.228 164.553 328.367C164.894 325.975 165.008 323.127 164.894 320.052C164.78 318.686 164.667 317.205 164.553 315.952H172.753C172.753 315.952 172.753 316.066 172.753 316.294C172.753 317.091 172.867 319.597 172.867 322.9C172.753 328.253 172.184 335.997 170.247 343.628C170.475 344.539 170.703 345.565 170.931 346.59ZM149.519 359.687C155.327 356.726 159.883 350.348 161.478 343.173L161.591 342.717L161.478 342.376C159.769 333.72 151.797 324.836 141.66 324.836C140.863 324.836 139.952 324.95 139.268 325.064C131.182 326.089 124.462 333.036 123.437 341.009C122.412 349.095 127.309 357.409 134.826 360.371C137.104 361.282 139.382 361.737 141.546 361.737C144.28 361.737 147.013 361.054 149.519 359.687Z" fill="white"/>
<path d="M54.3385 339.528C52.0606 329.392 52.0606 320.052 52.1745 316.977C52.1745 316.294 52.1745 315.952 52.1745 315.952H60.6027C60.6027 316.749 60.4888 317.547 60.3749 318.458C60.1471 322.33 60.261 325.861 60.6027 329.05C62.1972 326.658 64.0195 324.608 66.1835 322.9L66.2974 322.786C74.2699 315.724 86.3427 314.244 95.9098 319.597C104.793 324.608 110.26 335.2 109.235 345.451C108.096 355.587 100.466 364.813 90.6707 368.002C82.812 370.507 71.0809 369.141 64.3612 361.851C64.0195 361.624 63.7917 361.396 63.5639 361.054C62.5389 359.801 61.6277 358.662 60.6027 357.409C60.3749 359.915 60.1471 362.649 60.261 365.61C60.3749 367.09 60.4888 389.755 60.6027 391.008H52.5162C52.5162 391.008 52.5162 391.008 52.5162 390.78C52.5162 389.869 52.4023 366.179 52.5162 362.876C52.6301 357.523 53.1996 349.893 55.0219 342.489C54.7941 341.578 54.5663 340.553 54.3385 339.528ZM75.4089 326.658C69.7142 329.619 65.2723 335.77 63.6778 342.831C63.6778 342.945 63.6778 342.945 63.6778 342.945L63.5639 343.287L63.6778 343.742C65.3862 352.17 73.131 360.94 83.2676 360.94C84.0648 360.94 84.7482 360.94 85.5454 360.826C93.518 359.687 100.124 352.968 101.149 344.995C102.06 337.136 97.2765 328.936 89.8734 325.975C87.7094 325.064 85.4315 324.608 83.2676 324.608C80.5341 324.608 77.9145 325.291 75.4089 326.658Z" fill="white"/>
<path d="M46.3548 355.246C46.5826 360.599 43.0519 365.268 36.7877 368.116C33.0292 369.71 28.8151 370.508 24.4872 370.508C20.2731 370.508 15.7173 369.71 11.9588 368.002C6.26416 365.382 1.93619 360.941 0 355.815C2.84735 355.36 5.80858 354.904 8.65593 354.449C10.1365 356.84 12.5283 358.89 15.4896 360.257C20.8426 362.763 28.0179 362.763 33.3709 360.371C34.7376 359.688 38.0405 357.979 37.9266 355.588C37.9266 353.537 35.6488 350.804 31.3208 349.323C29.3846 348.64 26.8789 348.184 24.1455 347.729C17.3119 346.59 8.76982 345.109 4.44186 338.162C2.05009 334.289 1.59451 330.189 3.07513 326.317C4.78354 321.989 9.1115 318.458 14.5784 316.978C21.9815 314.927 30.5235 315.952 36.7877 319.711C41.4573 322.444 44.8742 326.658 46.3548 331.214C43.5074 331.784 40.774 332.467 38.0405 333.037C37.0155 330.645 35.0793 328.481 32.5736 327C28.1318 324.381 21.9815 323.697 16.8563 325.064C13.895 325.861 11.6172 327.57 10.9338 329.392C10.3643 330.759 10.5921 332.125 11.6172 333.72C13.895 337.365 19.8175 338.39 25.6261 339.415C28.7012 339.87 31.5486 340.44 34.1681 341.351C41.3434 343.856 46.127 349.323 46.3548 355.246Z" fill="white"/>
<path d="M452.107 339.213C450.473 339.213 448.934 338.912 447.492 338.31C446.05 337.707 444.78 336.878 443.684 335.824C442.607 334.751 441.761 333.508 441.146 332.096C440.53 330.683 440.223 329.177 440.223 327.576C440.223 325.957 440.53 324.451 441.146 323.057C441.761 321.645 442.607 320.412 443.684 319.357C444.78 318.284 446.05 317.446 447.492 316.843C448.934 316.241 450.473 315.939 452.107 315.939C453.761 315.939 455.3 316.241 456.723 316.843C458.165 317.446 459.425 318.284 460.501 319.357C461.598 320.412 462.453 321.645 463.069 323.057C463.684 324.451 463.992 325.957 463.992 327.576C463.992 329.177 463.684 330.683 463.069 332.096C462.453 333.508 461.598 334.751 460.501 335.824C459.425 336.878 458.165 337.707 456.723 338.31C455.3 338.912 453.761 339.213 452.107 339.213ZM452.107 337.632C453.53 337.632 454.857 337.377 456.088 336.869C457.338 336.342 458.434 335.617 459.376 334.694C460.319 333.772 461.049 332.708 461.569 331.502C462.107 330.279 462.376 328.97 462.376 327.576C462.376 326.183 462.107 324.884 461.569 323.679C461.049 322.455 460.319 321.381 459.376 320.459C458.434 319.536 457.338 318.82 456.088 318.312C454.857 317.785 453.53 317.521 452.107 317.521C450.684 317.521 449.348 317.785 448.098 318.312C446.867 318.82 445.78 319.536 444.838 320.459C443.896 321.381 443.155 322.455 442.617 323.679C442.098 324.884 441.838 326.183 441.838 327.576C441.838 328.97 442.098 330.279 442.617 331.502C443.155 332.708 443.896 333.772 444.838 334.694C445.78 335.617 446.867 336.342 448.098 336.869C449.348 337.377 450.684 337.632 452.107 337.632Z" fill="white"/>
<path d="M455.81 329.491L457.554 330.061L457.268 330.537C456.216 332.249 454.401 333.271 452.37 333.271C449.216 333.271 446.66 330.727 446.66 327.588C446.66 324.45 449.216 321.882 452.37 321.882C454.377 321.882 456.24 322.928 457.268 324.64L457.554 325.092L455.81 325.686L455.619 325.401C454.902 324.331 453.684 323.689 452.37 323.689C450.22 323.689 448.452 325.448 448.452 327.588C448.452 329.728 450.22 331.488 452.37 331.488C453.684 331.488 454.902 330.846 455.619 329.752L455.81 329.491Z" fill="white"/>
<path fill-rule="evenodd" clip-rule="evenodd" d="M212.788 39.468C151.258 48.6544 104.061 101.728 104.061 165.818V184.849H66V165.818C66 74.2394 140.239 0 231.818 0H250.849V145.381C312.379 136.195 359.576 83.1208 359.576 19.0305V0H397.637V19.0305C397.637 104.175 333.468 174.325 250.849 183.768V254.573H212.788V39.468Z" fill="white"/>
</svg>
