<svg  viewBox="0 0 1528 266" fill="none" xmlns="http://www.w3.org/2000/svg">
<path d="M1421.9 136.171C1422.65 154.489 1410.99 170.469 1390.31 180.213C1377.9 185.669 1363.99 188.398 1349.7 188.398C1335.78 188.398 1320.74 185.669 1308.33 179.823C1289.53 170.859 1275.24 155.659 1268.85 138.12C1278.25 136.561 1288.03 135.002 1297.43 133.443C1302.32 141.628 1310.21 148.643 1319.99 153.32C1337.66 161.895 1361.36 161.895 1379.03 153.71C1383.54 151.371 1394.45 145.525 1394.07 137.34C1394.07 130.325 1386.55 120.971 1372.26 115.904C1365.87 113.566 1357.59 112.007 1348.57 110.448C1326.01 106.55 1297.8 101.483 1283.51 77.7085C1275.62 64.457 1274.11 50.426 1279 37.1745C1284.64 22.364 1298.93 10.2817 1316.98 5.21495C1341.42 -1.80056 1369.63 1.7072 1390.31 14.569C1405.73 23.923 1417.01 38.3437 1421.9 53.9338C1412.5 55.8825 1403.47 58.221 1394.45 60.1698C1391.06 51.985 1384.67 44.5797 1376.4 39.513C1361.73 30.5487 1341.42 28.2102 1324.5 32.8872C1314.73 35.6155 1307.2 41.4617 1304.95 47.6977C1303.07 52.3747 1303.82 57.0518 1307.2 62.5083C1314.73 74.9803 1334.28 78.488 1353.46 81.9958C1363.61 83.5548 1373.01 85.5035 1381.66 88.6215C1405.35 97.196 1421.15 115.904 1421.9 136.171Z" fill="url(#paint0_linear_160_6238)"/>
<path d="M1096.29 108.889V1.70735H1124.12V108.889C1124.12 136.951 1145.93 159.556 1173 159.556C1199.7 159.556 1221.51 136.951 1221.51 108.889V1.70735H1249.72V108.889C1249.72 152.93 1215.12 188.398 1173 188.398C1130.51 188.398 1096.29 152.93 1096.29 108.889Z" fill="url(#paint1_linear_160_6238)"/>
<path d="M1032.67 219.144C1039.07 212.507 1043.59 205.088 1046.6 196.889L1071.06 206.65C1065.42 222.659 1055.26 236.324 1040.95 247.257C1025.52 258.971 1007.46 265.608 989.017 265.608C973.21 265.608 957.403 260.532 943.855 251.942C925.789 239.838 913.37 225.001 906.972 205.479L931.811 195.717C935.198 206.26 941.22 215.24 949.5 222.659C960.791 232.81 973.963 237.496 989.394 237.496C1005.95 237.496 1020.63 231.249 1032.67 219.144ZM1075.96 1.66264C1075.96 16.4998 1072.57 31.337 1065.79 44.2219L1064.29 46.9551L1065.79 50.0787C1072.57 62.9636 1075.96 77.4104 1075.96 92.2475C1076.33 116.065 1067.3 138.711 1050.74 155.891C1034.18 173.071 1012.35 182.442 989.017 182.442C940.844 182.442 901.703 142.225 901.703 92.638C901.326 77.0199 905.466 61.4018 912.617 47.736C917.886 37.9747 925.037 29.3847 933.317 21.9661C948.747 9.08123 968.318 1.66264 987.888 1.66264C1006.71 1.66264 1024.39 7.51942 1039.45 18.8425L1046.6 23.9184L1048.48 15.3285C1049.23 10.643 1049.61 6.34808 1049.61 1.66264H1075.96ZM1032.3 136.369C1044.34 123.484 1050.74 105.913 1049.61 88.343C1049.23 82.8767 1048.48 77.8008 1046.6 72.7249C1043.21 62.5732 1037.57 53.2023 1029.66 45.7837C1018.37 34.8511 1004.45 28.9943 988.641 28.9943H987.512C972.834 29.3847 958.532 35.2415 947.242 45.7837C939.715 53.2023 934.069 62.5732 930.682 72.7249C928.8 78.9722 927.671 85.6099 927.671 92.2475C928.048 109.427 934.446 125.436 945.736 137.15C957.027 148.863 972.458 155.11 989.017 155.11H990.146C1005.58 155.11 1021.01 148.473 1032.3 136.369Z" fill="url(#paint2_linear_160_6238)"/>
<path d="M875.101 106.55C882.622 141.628 882.622 174.367 882.622 184.89C882.622 187.228 882.622 188.398 882.622 188.398H854.042C854.418 185.669 854.418 182.941 854.794 179.823C855.922 166.572 855.17 154.1 854.042 143.187C848.777 151.371 842.76 158.777 835.239 164.623C808.164 189.567 767.551 194.634 735.587 175.926C705.879 158.387 687.452 121.75 691.213 85.8934C694.973 50.8159 720.169 18.4666 753.261 7.94336C779.584 -1.0209 819.069 3.65611 841.632 28.9899C842.384 29.7694 843.512 30.9386 844.265 31.7181C847.649 36.0054 850.657 40.2926 854.042 44.1901C855.17 36.0054 855.546 26.2616 855.17 15.7384C854.794 11.0614 854.418 5.99461 854.042 1.70735H881.117C881.117 1.70735 881.117 2.09711 881.117 2.87661C881.117 5.60486 881.494 14.1794 881.494 25.4821C881.117 43.8004 879.237 70.3034 872.844 96.4167C873.596 99.5347 874.348 103.042 875.101 106.55ZM804.403 151.371C823.582 141.238 838.624 119.412 843.888 94.8577L844.265 93.2987L843.888 92.1294C838.248 62.5084 811.924 32.1079 778.456 32.1079C775.824 32.1079 772.815 32.4976 770.559 32.8874C743.86 36.3951 721.673 60.1699 718.288 87.4524C714.904 115.125 731.074 143.576 755.893 153.71C763.414 156.828 770.935 158.387 778.08 158.387C787.105 158.387 796.13 156.048 804.403 151.371Z" fill="url(#paint3_linear_160_6238)"/>
<path d="M678.665 1.70735C682.802 1.70735 686.938 2.09711 691.075 2.48685V30.9386C686.938 30.1591 682.802 29.7694 678.665 29.7694C661.743 29.7694 645.949 36.3951 634.291 48.4774C622.634 60.5597 615.865 77.3189 615.865 94.8577V188.787H588.789V1.70735H615.865V28.2104C632.035 11.8409 654.222 1.70735 678.665 1.70735Z" fill="url(#paint4_linear_160_6238)"/>
<path d="M560.38 106.55C567.901 141.628 567.901 174.367 567.901 184.89C567.901 187.228 567.901 188.398 567.901 188.398H539.321C539.697 185.669 539.697 182.941 540.073 179.823C541.201 166.572 540.449 154.1 539.321 143.187C534.057 151.371 528.04 158.777 520.519 164.623C493.443 189.567 452.83 194.634 420.866 175.926C391.158 158.387 372.732 121.75 376.492 85.8934C380.253 50.8159 405.448 18.4666 438.54 7.94336C464.864 -1.0209 504.349 3.65611 526.912 28.9899C527.664 29.7694 528.792 30.9386 529.544 31.7181C532.928 36.0054 535.937 40.2926 539.321 44.1901C540.449 36.0054 540.825 26.2616 540.449 15.7384C540.073 11.0614 539.697 5.99461 539.321 1.70735H566.397C566.397 1.70735 566.397 2.09711 566.397 2.87661C566.397 5.60486 566.773 14.1794 566.773 25.4821C566.397 43.8004 564.517 70.3034 558.124 96.4167C558.876 99.5347 559.628 103.042 560.38 106.55ZM489.683 151.371C508.861 141.238 523.903 119.412 529.168 94.8577L529.544 93.2987L529.168 92.1294C523.527 62.5084 497.204 32.1079 463.736 32.1079C461.103 32.1079 458.095 32.4976 455.839 32.8874C429.139 36.3951 406.952 60.1699 403.568 87.4524C400.183 115.125 416.353 143.576 441.173 153.71C448.694 156.828 456.214 158.387 463.359 158.387C472.385 158.387 481.41 156.048 489.683 151.371Z" fill="url(#paint5_linear_160_6238)"/>
<path d="M175.424 82.3857C167.903 47.6979 167.903 15.7384 168.279 5.2151C168.279 2.87661 168.279 1.70735 168.279 1.70735H196.107C196.107 4.4356 195.731 7.16386 195.355 10.2819C194.603 23.5334 194.979 35.6156 196.107 46.5286C201.371 38.3439 207.388 31.3284 214.533 25.4821L214.909 25.0924C241.233 0.927841 281.094 -4.1389 312.682 14.1794C342.014 31.3284 360.064 67.5751 356.68 102.653C352.919 137.34 327.724 168.91 295.384 179.823C269.436 188.398 230.703 183.721 208.516 158.777C207.388 157.997 206.636 157.218 205.884 156.048C202.5 151.761 199.491 147.864 196.107 143.576C195.355 152.151 194.603 161.505 194.979 171.638C195.355 176.705 195.731 261.713 196.107 266H169.407C169.407 262.882 169.031 173.587 169.407 162.285C169.783 143.966 171.664 117.853 177.68 92.5192C176.928 89.4012 176.176 85.8934 175.424 82.3857ZM244.993 38.3439C226.191 48.4774 211.525 69.5239 206.26 93.6884C206.26 94.0782 206.26 94.0782 206.26 94.0782L205.884 95.2474L206.26 96.8064C211.901 125.648 237.472 155.659 270.941 155.659C273.573 155.659 275.829 155.659 278.461 155.269C304.785 151.371 326.596 128.376 329.98 101.094C332.989 74.2009 317.194 46.1389 292.751 36.0054C285.606 32.8874 278.085 31.3284 270.941 31.3284C261.915 31.3284 253.266 33.6669 244.993 38.3439Z" fill="url(#paint6_linear_160_6238)"/>
<path d="M149.062 136.171C149.814 154.489 138.157 170.469 117.474 180.213C105.065 185.669 91.1508 188.397 76.8609 188.397C62.9471 188.397 51.8947 185.669 39.4851 179.823C20.6827 170.859 6.39283 155.658 0 138.12C9.40122 136.561 19.1785 135.002 28.5797 133.443C33.4683 141.627 41.3654 148.643 51.1426 153.32C68.8169 161.894 88.5184 161.894 106.193 153.71C110.705 151.371 121.611 145.525 121.235 137.34C121.235 130.325 113.714 120.971 99.4239 115.904C93.031 113.565 84.758 112.006 75.7328 110.447C53.1699 106.55 23.3704 101.483 9.08052 77.7084C1.1835 64.4569 -0.320699 50.4258 4.56794 37.1743C10.2087 22.3638 24.4985 10.2816 42.5489 5.21481C66.992 -1.8007 96.7915 1.70706 117.474 14.5688C132.892 23.9228 144.174 38.3436 149.062 53.9336C139.661 55.8824 130.636 58.2209 121.611 60.1696C118.226 51.9848 111.833 44.5796 103.56 39.5128C88.8945 30.5486 66.992 28.2101 50.0698 32.8871C40.2926 35.6153 32.7716 41.4616 30.5153 47.6976C28.6351 52.3746 29.3872 57.0516 32.7716 62.5081C40.2926 74.9801 61.4429 78.4879 80.6214 81.9956C90.7747 83.5546 100.176 85.5034 108.825 88.6214C132.516 97.1959 148.31 115.904 149.062 136.171Z" fill="url(#paint7_linear_160_6238)"/>
<path d="M1489.28 78.1375C1483.95 78.1375 1478.94 77.126 1474.24 75.103C1469.54 73.0801 1465.4 70.2985 1461.83 66.7582C1458.32 63.1548 1455.56 58.9824 1453.56 54.2411C1451.55 49.4997 1450.55 44.4423 1450.55 39.0687C1450.55 33.632 1451.55 28.5746 1453.56 23.8964C1455.56 19.1551 1458.32 15.0143 1461.83 11.4741C1465.4 7.87065 1469.54 5.05744 1474.24 3.03447C1478.94 1.01149 1483.95 0 1489.28 0C1494.66 0 1499.68 1.01149 1504.31 3.03447C1509.01 5.05744 1513.12 7.87065 1516.63 11.4741C1520.2 15.0143 1522.99 19.1551 1524.99 23.8964C1527 28.5746 1528 33.632 1528 39.0687C1528 44.4423 1527 49.4997 1524.99 54.2411C1522.99 58.9824 1520.2 63.1548 1516.63 66.7582C1513.12 70.2985 1509.01 73.0801 1504.31 75.103C1499.68 77.126 1494.66 78.1375 1489.28 78.1375ZM1489.28 72.8272C1493.91 72.8272 1498.24 71.9737 1502.25 70.2669C1506.32 68.4968 1509.89 66.0629 1512.96 62.9652C1516.03 59.8675 1518.41 56.2957 1520.1 52.2497C1521.86 48.1405 1522.74 43.7469 1522.74 39.0687C1522.74 34.3906 1521.86 30.0286 1520.1 25.9826C1518.41 21.8734 1516.03 18.27 1512.96 15.1723C1509.89 12.0746 1506.32 9.67236 1502.25 7.96547C1498.24 6.19537 1493.91 5.31032 1489.28 5.31032C1484.64 5.31032 1480.28 6.19537 1476.21 7.96547C1472.2 9.67236 1468.66 12.0746 1465.59 15.1723C1462.52 18.27 1460.11 21.8734 1458.35 25.9826C1456.66 30.0286 1455.81 34.3906 1455.81 39.0687C1455.81 43.7469 1456.66 48.1405 1458.35 52.2497C1460.11 56.2957 1462.52 59.8675 1465.59 62.9652C1468.66 66.0629 1472.2 68.4968 1476.21 70.2669C1480.28 71.9737 1484.64 72.8272 1489.28 72.8272Z" fill="url(#paint8_linear_160_6238)"/>
<path d="M1501.34 45.4949L1507.02 47.4107L1506.09 49.0073C1502.66 54.7549 1496.75 58.1875 1490.13 58.1875C1479.86 58.1875 1471.53 49.6459 1471.53 39.1087C1471.53 28.5714 1479.86 19.95 1490.13 19.95C1496.67 19.95 1502.74 23.4624 1506.09 29.21L1507.02 30.7267L1501.34 32.7224L1500.72 31.7645C1498.38 28.1723 1494.41 26.0169 1490.13 26.0169C1483.13 26.0169 1477.37 31.9242 1477.37 39.1087C1477.37 46.2932 1483.13 52.2004 1490.13 52.2004C1494.41 52.2004 1498.38 50.0451 1500.72 46.373L1501.34 45.4949Z" fill="url(#paint9_linear_160_6238)"/>
<defs>
<linearGradient id="paint0_linear_160_6238" x1="764" y1="0" x2="764" y2="266" gradientUnits="userSpaceOnUse">
<stop stop-color="#5C5C5C"/>
<stop offset="1" stop-color="#3D3D3D" stop-opacity="0.34"/>
</linearGradient>
<linearGradient id="paint1_linear_160_6238" x1="764" y1="0" x2="764" y2="266" gradientUnits="userSpaceOnUse">
<stop stop-color="#5C5C5C"/>
<stop offset="1" stop-color="#3D3D3D" stop-opacity="0.34"/>
</linearGradient>
<linearGradient id="paint2_linear_160_6238" x1="764" y1="0" x2="764" y2="266" gradientUnits="userSpaceOnUse">
<stop stop-color="#5C5C5C"/>
<stop offset="1" stop-color="#3D3D3D" stop-opacity="0.34"/>
</linearGradient>
<linearGradient id="paint3_linear_160_6238" x1="764" y1="0" x2="764" y2="266" gradientUnits="userSpaceOnUse">
<stop stop-color="#5C5C5C"/>
<stop offset="1" stop-color="#3D3D3D" stop-opacity="0.34"/>
</linearGradient>
<linearGradient id="paint4_linear_160_6238" x1="764" y1="0" x2="764" y2="266" gradientUnits="userSpaceOnUse">
<stop stop-color="#5C5C5C"/>
<stop offset="1" stop-color="#3D3D3D" stop-opacity="0.34"/>
</linearGradient>
<linearGradient id="paint5_linear_160_6238" x1="764" y1="0" x2="764" y2="266" gradientUnits="userSpaceOnUse">
<stop stop-color="#5C5C5C"/>
<stop offset="1" stop-color="#3D3D3D" stop-opacity="0.34"/>
</linearGradient>
<linearGradient id="paint6_linear_160_6238" x1="764" y1="0" x2="764" y2="266" gradientUnits="userSpaceOnUse">
<stop stop-color="#5C5C5C"/>
<stop offset="1" stop-color="#3D3D3D" stop-opacity="0.34"/>
</linearGradient>
<linearGradient id="paint7_linear_160_6238" x1="764" y1="0" x2="764" y2="266" gradientUnits="userSpaceOnUse">
<stop stop-color="#5C5C5C"/>
<stop offset="1" stop-color="#3D3D3D" stop-opacity="0.34"/>
</linearGradient>
<linearGradient id="paint8_linear_160_6238" x1="764" y1="0" x2="764" y2="266" gradientUnits="userSpaceOnUse">
<stop stop-color="#5C5C5C"/>
<stop offset="1" stop-color="#3D3D3D" stop-opacity="0.34"/>
</linearGradient>
<linearGradient id="paint9_linear_160_6238" x1="764" y1="0" x2="764" y2="266" gradientUnits="userSpaceOnUse">
<stop stop-color="#5C5C5C"/>
<stop offset="1" stop-color="#3D3D3D" stop-opacity="0.34"/>
</linearGradient>
</defs>
</svg>
