<svg width="100" height="100" viewBox="0 0 100 100" fill="none" xmlns="http://www.w3.org/2000/svg">
<g clip-path="url(#clip0_183_389)">
<path d="M100 0.000976562H0.000976562V100H100V0.000976562Z" fill="#121212"/>
<path d="M56.2256 49.3849H61.9684L100 0H94.3831L56.2256 49.3849Z" fill="white"/>
<path d="M76.41 71.4232C78.153 76.2996 81.7446 88.9896 83.1725 90.0007H73.7433C73.715 88.8788 73.5666 87.7631 73.3008 86.6728C72.8942 85.2223 69.4836 74.2498 69.4836 74.2498H54.5062L52.1514 77.5881C52.1514 77.5881 54.9798 86.4419 55.1555 86.876C55.4604 87.6581 56.8108 90.0007 56.8108 90.0007H47.7745C47.7745 90.0007 47.5403 88.6485 47.4524 88.0853C47.3817 87.6306 46.5963 85.1398 46.5963 85.1398C46.5963 85.1398 44.5482 87.3841 43.9901 88.4247C43.4268 89.4632 43.177 90.0007 43.177 90.0007H36.1077C36.1077 90.0007 35.8717 88.6485 35.7839 88.0853C35.7151 87.6306 34.8503 84.9399 34.8503 84.9399C34.8503 84.9399 32.8712 87.3429 32.3078 88.3814C31.748 89.4219 31.5068 90.0007 31.5068 90.0007H24.5152C24.5152 90.0007 26.4909 88.1197 27.1816 87.3118C28.346 85.9424 32.6851 80.2719 32.6851 80.2719L30.9454 74.2498H16.0816C16.0816 74.2498 7.60671 85.386 7.27263 85.7305C6.93503 86.0699 4.4649 89.6149 4.40968 90.0007H0V87.1965C0.0546935 87.1369 0.112762 87.0806 0.173918 87.0277C0.310089 86.9277 6.599 79.1211 12.3764 71.4232C17.5682 64.7104 22.4395 58.182 22.8667 57.5602C23.9019 56.0565 25.3936 52.8096 25.3936 52.8096H33.0778C33.0778 52.8096 33.3155 55.7963 33.5395 56.5215C33.7392 57.1623 38.4211 72.5239 38.5313 72.6893L41.1203 69.3785L36.6951 55.7566C36.6951 55.7566 35.6581 53.1936 35.3205 52.8096H44.2967C44.265 53.6335 44.3638 54.4572 44.5895 55.2502C44.9546 56.3735 46.8788 63.317 46.8788 63.317C46.8788 63.317 53.0007 55.6431 53.3589 55.0918C53.7938 54.4044 54.0535 53.6207 54.1151 52.8096H61.5943C61.5943 52.8096 60.225 53.8102 57.8254 56.8453C57.0193 57.8668 49.1214 67.9041 49.1214 67.9041C49.1214 67.9041 49.8106 70.2536 50.1464 71.4232C50.2378 71.759 50.3014 71.9864 50.3014 72.0106C50.3014 72.021 50.4754 71.8074 50.7751 71.4232C52.8129 68.8411 62.0818 56.6869 62.6435 55.6464C63.0964 54.8059 63.763 53.8499 64.154 52.8096H71.4507C71.4507 52.8096 71.6195 54.9885 71.8417 55.5914L76.41 71.4232ZM65.3064 59.9183C64.235 62.2232 57.9288 69.9005 57.9288 69.9005H67.916C67.916 69.9005 65.98 63.9387 65.6424 62.5952C65.4699 61.7361 65.4039 60.859 65.4459 59.9838C65.4459 59.8615 65.4235 59.6635 65.3064 59.9183ZM26.9335 59.9183C25.8621 62.2232 19.5559 69.9005 19.5559 69.9005H29.5431C29.5431 69.9005 27.6089 63.9387 27.2713 62.5952C27.0987 61.7361 27.0327 60.859 27.0748 59.9838C27.0748 59.8615 27.0508 59.6635 26.9335 59.9183ZM41.9696 83.1967L44.7188 79.421C44.4655 79.1488 42.917 74.4532 42.917 74.4532L40.259 77.9016L41.9696 83.1967Z" fill="white"/>
</g>
<defs>
<clipPath id="clip0_183_389">
<rect width="100" height="100" fill="white"/>
</clipPath>
</defs>
</svg>
