<svg width="458" height="100" viewBox="0 0 458 100" fill="none" xmlns="http://www.w3.org/2000/svg">
<g clip-path="url(#clip0_183_395)">
<path d="M0 99.9018H101.43V0.1875H0V99.9018Z" fill="#121212"/>
<path d="M7.90075 1.91943C5.92769 1.91943 4.68671 3.52658 4.32067 5.8748C4.32067 5.8748 1.72266 19.223 1.72266 47.5087C1.72266 75.8034 4.32067 94.3391 4.32067 94.3391C4.57065 96.5623 5.92769 98.2944 7.90075 98.2944H95.7421C97.7152 98.2944 99.1972 96.6873 99.3222 94.3391C99.3222 94.3391 98.3312 72.7141 98.3312 51.4641C98.3312 30.3391 99.3222 5.8748 99.3222 5.8748C99.3222 3.65158 97.7152 1.91943 95.7421 1.91943H7.90075Z" fill="#121212"/>
<path d="M57.2013 12.0536C59.9154 13.1696 71.1645 19.2232 72.5215 21.1964C66.9595 21.9375 55.9692 24.7768 50.0322 27.625L49.6572 28.3661C56.2014 26.8839 65.3435 26.1429 71.6466 25.8929C69.2986 29.3482 67.6915 30.9554 64.2364 34.9107L63.8615 35.6518C70.6556 31.5714 72.6286 31.3304 78.8067 27.625C81.1548 31.0804 81.7708 39.2411 81.8958 45.6607C83.9938 41.5804 86.4669 26.2589 85.3509 23.5446C89.547 20.7054 90.0469 18.3571 90.0469 18.3571C86.2169 18.7321 84.1188 18.7321 82.0208 19.3482C77.1997 16.3839 65.9595 12.4286 57.5584 11.4375L57.2013 12.0536Z" fill="white"/>
<path d="M15.6861 59.6162C15.195 64.6787 14.945 68.3841 15.6861 72.4644C13.588 73.0805 11.856 73.0805 10.124 73.8216L9.74902 74.5626C12.347 76.1698 14.5701 77.4019 17.5341 78.8841C19.1411 82.3394 20.7482 84.6876 23.4622 87.2859L23.8372 86.5448C23.3462 84.5716 22.7212 82.9644 22.9712 80.8573C26.3102 81.8483 29.1493 82.3394 32.9794 82.4644L33.3543 81.7233C30.0153 80.4912 26.6852 79.3751 23.9622 76.9019C24.8282 74.5537 25.8192 72.7055 27.4173 70.3573L27.7923 69.6162C24.9532 69.9912 22.3552 71.0983 19.8822 71.5894C17.9091 68.1341 17.1681 63.4376 16.1771 58.9912L15.6861 59.6162Z" fill="white"/>
<path d="M32.614 36.3927C32.614 36.3927 30.5159 36.1427 26.9269 36.2677C23.9629 36.3927 19.5168 36.6427 17.2937 37.2588L16.9188 37.9999C20.3739 38.1249 25.0699 39.1159 26.9269 40.8391C26.9269 40.8391 21.7398 45.5356 16.4277 55.9106C16.4277 55.9106 25.8199 47.0177 29.891 44.9106C29.891 44.9106 31.989 52.0802 33.471 55.5356L33.846 54.7945C34.221 52.4463 35.328 46.2677 37.0601 42.4374C37.0601 42.4374 37.6761 42.0624 40.6401 41.8213C43.6042 41.5713 47.9253 41.4463 56.0854 42.8124L56.4603 42.0713C54.6033 40.9552 47.1932 37.8749 39.4081 36.7588H39.6581C40.774 33.5445 42.1311 31.1963 42.1311 31.1963C40.5241 31.5713 35.828 33.7945 32.614 36.3927Z" fill="white"/>
<path d="M52.3794 80.009C52.2544 78.6519 52.1294 77.4108 52.1294 75.9287C50.5224 78.1519 49.0403 79.8841 47.3083 81.9823C45.4513 82.4733 43.2283 82.4733 41.2552 82.4733C40.5142 82.4733 39.6482 82.4733 39.0322 82.4733L38.6572 83.2144C40.5142 84.2055 42.3623 84.6966 44.2193 85.1876C42.6123 86.6698 40.5142 87.6609 39.0322 88.768L38.6572 89.5091C41.8713 88.768 45.9424 87.4108 49.1564 85.5537C50.7634 85.6787 52.2455 85.5537 53.3525 85.3037L53.7275 84.5626C53.4775 83.8215 52.8615 83.4465 52.7365 82.4644C55.7005 80.2412 57.7986 78.143 60.1466 75.6698L60.5216 74.9287C58.1914 76.4198 55.2184 78.643 52.3794 80.009Z" fill="white"/>
<path d="M79.088 26.8234C72.7849 30.5287 70.9368 30.7787 64.1427 34.8502C68.0978 30.5287 69.4548 28.6716 71.9278 25.0912C65.6248 25.4662 56.4826 26.2073 50.0635 27.5645C55.7505 24.4752 66.9907 21.1359 72.9188 20.3948C71.5618 18.5377 60.4377 12.4841 57.5986 11.252C66.3658 11.993 77.2399 15.2073 82.427 18.4216C84.5251 17.8055 86.6231 17.8055 90.4532 17.4305C89.4622 19.1627 89.4622 20.0287 85.6321 22.618C86.6231 25.3323 84.1501 40.6537 82.177 44.7341C82.0521 38.4305 81.436 30.2787 79.088 26.8234Z" fill="white"/>
<path d="M33.2284 81.6872C29.6483 80.3301 27.0503 78.8479 24.2112 76.1247C25.0772 73.7765 26.0682 71.9283 27.6663 69.5801C24.7023 70.0712 22.6042 70.3211 20.0062 70.8122C17.9082 67.2319 17.0422 63.7676 15.9262 58.9551C15.3101 64.0176 15.1852 67.7229 15.9262 71.8033C13.5781 72.4194 11.9711 73.0354 10.123 73.9015C12.8371 75.5087 14.9441 76.7408 17.9082 78.2229C19.5152 81.6783 21.1222 84.0265 23.8363 86.6247C23.2202 84.4015 23.0952 82.5444 23.3452 80.1962C26.6843 81.0712 29.5233 81.5622 33.2284 81.6872Z" fill="white"/>
<path d="M42.6533 30.7998C41.5373 32.2819 40.1803 34.9962 39.9392 36.2373C49.2063 37.4694 56.6165 42.2909 56.6165 42.2909C48.4653 40.8087 44.2603 41.0587 41.1713 41.2998C38.2072 41.5498 37.5912 41.9159 37.5912 41.9159C35.3681 46.7373 34.1361 54.8891 34.1361 54.8891C32.6541 51.3087 30.556 44.2641 30.556 44.2641C26.476 46.4873 17.0928 55.2641 17.0928 55.2641C22.2799 44.8891 27.467 40.1927 27.467 40.1927C25.61 38.3355 20.9228 37.4784 17.4588 37.3534C19.3158 36.6123 23.8869 35.7462 27.467 35.6212C31.047 35.4962 33.154 35.7462 33.154 35.7462C36.1002 33.148 40.9213 31.0498 42.6533 30.7998Z" fill="white"/>
<path d="M52.4409 75.2526C50.8339 77.4758 49.3519 79.2079 47.6199 81.3062C44.5308 82.1722 42.0578 82.5383 38.9688 82.5383C40.8257 83.5294 42.6738 84.0204 44.6558 84.5115C42.6827 86.2437 41.0757 87.4758 39.2187 88.7079C42.4328 87.9669 46.5039 86.6097 49.7179 84.7526C51.3249 84.8776 52.807 84.7526 53.914 84.5026C53.664 83.5115 53.423 82.8954 53.173 81.6633C56.1371 79.4401 58.2351 77.3419 60.7081 74.8687C58.1101 76.7258 55.8871 78.0829 52.923 79.4401C52.5659 77.9669 52.5659 76.7347 52.4409 75.2526Z" fill="white"/>
<path d="M138.484 38.3831C144.662 38.3831 147.01 39.7402 147.01 43.0795C147.01 44.0706 146.76 44.8117 146.144 45.4277C144.912 46.9099 142.689 47.6509 139.716 47.4009H139.591L137.859 51.9724H139.591C143.046 51.8474 146.019 52.9635 147.501 54.8117C148.242 55.6777 148.617 56.6688 148.617 57.7759C148.617 61.3563 145.528 63.0885 139.35 63.0885C138.359 63.0885 136.636 63.0885 135.645 63.0885C135.52 58.392 135.395 51.9724 135.395 50.1152C135.395 47.892 135.52 42.9456 135.645 38.7492C136.136 38.3831 137.368 38.3831 138.484 38.3831ZM126.994 35.0438C127.244 38.3831 127.369 46.9009 127.369 49.9902C127.369 52.8295 127.369 62.3474 126.878 66.4188V66.7938H141.823C149.108 66.7938 156.894 64.5706 156.894 58.0259C156.894 53.9456 153.93 50.9813 148.492 49.2581C152.572 48.142 155.287 45.4277 155.287 42.2135C155.287 36.901 149.233 34.9277 143.43 34.8027H126.869L126.994 35.0438Z" fill="white"/>
<path d="M191.091 34.7832H183.806L184.056 42.81C184.181 46.7653 184.306 50.9618 184.672 54.9171C184.181 53.685 183.806 53.06 181.583 49.8546C181.583 49.7296 174.048 38.1136 171.45 34.9082L171.325 34.7832H162.924V35.0332C163.174 38.3725 163.299 46.8903 163.299 49.9796C163.299 52.8189 163.299 62.3368 162.924 66.4082L162.799 66.7832H170.334V66.4082C169.959 58.6225 169.959 50.7207 169.959 43.06C170.209 44.051 170.575 44.7921 171.691 46.5153C171.816 46.7653 184.663 65.5421 185.279 66.5332L185.404 66.6582H191.457V66.2832C190.966 62.2028 190.966 52.6939 190.966 49.8546C190.966 46.7653 191.216 38.2386 191.341 34.9082L191.466 34.6582H191.091V34.7832Z" fill="white"/>
<path d="M210.786 38.7117C214.982 38.5867 217.83 39.4528 219.312 41.1849C219.928 41.926 220.303 42.9171 220.303 44.0242C220.303 48.7206 215.116 49.7117 210.786 49.7117L209.054 49.5867C209.054 49.5867 208.679 49.5867 208.313 49.4617C208.313 48.3456 208.313 46.9885 208.313 45.3813C208.313 43.4081 208.313 40.9349 208.438 38.7117C208.813 38.7117 209.795 38.7117 210.786 38.7117ZM199.796 35.1313C200.046 38.4706 200.171 46.9885 200.171 50.0778C200.171 52.9171 200.171 62.4349 199.68 66.5063V66.8813H208.572V66.5063C208.322 63.5421 208.081 57.8546 208.081 53.6581C208.456 53.6581 209.813 53.7831 209.813 53.7831H211.045C222.785 53.7831 228.463 50.6939 228.463 44.1492C228.463 36.7385 220.437 35.0063 213.759 34.8813H199.796V35.1313Z" fill="white"/>
<path d="M256.46 38.7117C260.656 38.5867 263.504 39.4528 264.986 41.1849C265.602 41.926 265.977 42.9171 265.977 44.0242C265.977 48.7206 260.79 49.7117 256.46 49.7117L254.728 49.5867C254.728 49.5867 254.237 49.5867 253.987 49.4617C253.987 48.3456 253.987 46.9885 253.987 45.3813C253.987 43.4081 253.987 40.9349 254.112 38.7117C254.603 38.7117 255.469 38.7117 256.46 38.7117ZM245.586 35.1313C245.836 38.4706 246.077 46.9885 246.077 50.0778C246.077 52.9171 246.077 62.4349 245.586 66.5063V66.8813H254.478V66.5063C254.228 63.5421 253.987 57.8546 253.987 53.6581C254.362 53.6581 255.594 53.7831 255.594 53.7831H256.826C268.566 53.7831 274.245 50.6939 274.245 44.1492C274.245 36.7385 266.218 35.0063 259.54 34.8813H245.577C245.586 34.8813 245.586 35.1313 245.586 35.1313Z" fill="white"/>
<path d="M288.404 44.2262C289.145 45.7084 291.002 50.0298 292.975 55.1012C292.6 55.1012 292.234 55.1012 292.234 55.1012H288.279C288.279 55.1012 284.199 55.1012 283.583 54.9762C285.315 51.0209 287.047 47.3155 288.404 44.2262ZM286.181 34.8423L286.056 34.9673C284.449 39.5387 273.7 62.8869 271.968 66.4762L271.843 66.8512H279.378L279.503 66.7262C280.119 64.503 281.11 62.0298 282.101 59.4405C282.351 59.4405 288.404 59.3155 288.404 59.3155H293.591C293.591 59.3155 294.457 59.3155 294.707 59.3155C296.064 62.7709 297.055 65.3691 297.546 66.7262L297.671 66.8512H306.438L292.234 34.8512H292.109L286.181 34.8423Z" fill="white"/>
<path d="M309.994 35.1173C310.244 38.4566 310.369 46.9745 310.369 50.0638C310.369 52.903 310.369 62.4209 309.878 66.4923V66.8673H318.895V66.4923C318.404 62.2959 318.404 52.903 318.404 50.0638C318.404 47.8405 318.529 42.8941 318.654 38.8227C319.395 38.8227 320.386 38.6977 321.127 38.6977C325.323 38.5727 328.171 39.4388 329.528 41.1709C330.144 41.912 330.519 42.903 330.519 44.0102C330.519 47.7155 327.064 49.5727 323.85 49.6977C322.734 49.6977 321.993 49.5727 321.993 49.5727H321.252L321.627 50.1888C324.841 54.8852 329.537 62.912 331.51 66.6173V66.7423H341.143L340.893 66.3673C340.518 65.8763 334.224 56.6084 331.626 52.778C331.626 52.778 331.501 52.653 331.376 52.528C336.322 51.0459 338.661 48.3316 338.661 44.1263C338.661 36.7155 330.635 34.9834 323.957 34.8584H309.994V35.1173Z" fill="white"/>
<path d="M353.829 34.7832H345.303V35.0332C345.553 38.3725 345.678 46.8903 345.678 49.9796C345.678 52.8189 345.678 62.3368 345.187 66.4082V66.7832H354.079V66.4082C353.704 62.2118 353.588 52.6939 353.588 49.9796C353.588 46.8903 353.838 38.3636 354.079 35.0332V34.7832H353.829Z" fill="white"/>
<path d="M373.737 38.3831C380.04 38.3831 382.263 39.7402 382.263 43.0795C382.263 44.0706 382.013 44.8117 381.397 45.4277C380.281 46.9099 377.817 47.6509 374.969 47.4009H374.844L373.112 51.9724H374.844C378.299 51.8474 381.272 52.9635 382.754 54.8117C383.495 55.6777 383.87 56.6688 383.87 57.7759C383.87 61.3563 380.781 63.0885 374.603 63.0885C373.612 63.0885 371.889 63.0885 370.898 63.0885C370.648 58.392 370.648 51.9724 370.648 50.1152C370.648 47.892 370.773 42.9456 370.898 38.7492C371.514 38.3831 372.63 38.3831 373.737 38.3831ZM362.247 35.0438C362.497 38.3831 362.622 46.9009 362.622 49.9902C362.622 52.8295 362.622 62.3474 362.131 66.4188L362.006 66.7938H376.951C384.236 66.7938 392.021 64.5706 392.021 58.0259C392.021 53.9456 389.057 50.9813 383.495 49.2581C387.575 48.142 390.289 45.4277 390.289 42.2135C390.289 36.901 384.236 34.9277 378.549 34.8027H362.122L362.247 35.0438Z" fill="white"/>
<path d="M410.368 44.2415C411.109 45.7236 412.966 50.0451 414.939 55.1165C414.564 55.1165 414.198 55.1165 414.198 55.1165H410.243C410.243 55.1165 406.163 54.9915 405.547 54.9915C407.279 50.9111 408.886 47.3308 410.368 44.2415ZM413.957 34.8486H407.904V34.9736C406.047 39.7951 394.806 64.3754 393.815 66.4826L393.69 66.8576H401.351V66.6076C401.967 64.3844 402.833 61.9111 403.824 59.1969C404.074 59.1969 410.127 59.0719 410.127 59.0719L415.439 59.1969C415.439 59.1969 416.305 59.1969 416.555 59.1969C417.912 62.6522 418.903 65.2504 419.394 66.6076L419.519 66.8576H428.286L414.082 34.8576L413.957 34.8486Z" fill="white"/>
<path d="M430.919 43.094C430.919 48.7815 436.606 51.0047 441.543 53.103C445.373 54.7101 449.453 56.3172 449.453 58.9065C449.453 59.7726 449.328 60.3887 448.837 60.8797C447.846 61.9958 445.998 62.4869 443.034 62.2369C440.07 62.1119 436.731 61.1208 432.901 59.3976L431.419 58.6565V59.8887V65.5762L432.41 65.8262L433.026 65.9512C434.883 66.4422 438.463 67.3083 442.043 67.3083C451.435 67.3083 457.113 63.603 457.113 57.2994C457.113 51.4958 451.31 49.2726 446.239 47.1655C442.409 45.6833 438.579 44.0762 438.579 41.603C438.579 40.8619 438.579 38.7637 443.4 38.7637C446.98 38.7637 450.444 40.2458 452.417 40.9869L454.274 41.728V40.4958V34.6922L452.417 34.3172C450.56 33.9422 447.596 33.3262 444.391 33.3262C436.347 33.5851 430.919 37.4155 430.919 43.094Z" fill="white"/>
</g>
<defs>
<clipPath id="clip0_183_395">
<rect width="458" height="100" fill="white"/>
</clipPath>
</defs>
</svg>
