<svg width="362" height="60" viewBox="0 0 362 60" fill="none" xmlns="http://www.w3.org/2000/svg">
<g clip-path="url(#clip0_183_515)">
<path fill-rule="evenodd" clip-rule="evenodd" d="M25.7065 9.00417C27.6353 9.00417 28.7604 10.2915 28.7604 12.0615C28.7604 13.6684 28.439 15.2775 28.439 17.0475C28.439 18.3348 28.7604 19.6199 28.7604 20.9072C28.7604 23.1599 26.6709 24.2863 24.7421 24.2863C22.1725 24.2863 20.8866 22.999 21.0474 20.4267C21.0474 18.9785 21.2081 18.3348 20.2437 17.2084C19.1186 16.0821 17.5112 15.7624 16.0668 15.7624C9.96112 15.7624 9.31818 21.7139 9.31818 26.5391C9.31818 31.5251 9.96112 36.9961 16.2276 36.9961C17.6742 36.9961 19.1208 36.833 20.083 35.8675C21.2081 34.7433 21.2081 33.7757 21.2081 32.3297C21.2081 31.2055 21.2081 30.24 21.8511 29.2746C22.494 28.3091 23.6191 27.9895 24.9028 27.9895C27.9567 27.9895 29.4034 30.24 29.4034 33.1364C29.4034 40.5361 22.494 43.9131 15.9061 43.9131C11.5663 43.9131 7.23084 42.6258 4.17689 39.2511C1.28367 36.1937 0 30.8859 0 26.5435C0 22.6838 0.803672 17.8565 2.89102 14.4796C5.46276 10.7808 9.80039 8.68896 14.2987 8.68896C17.6742 8.68896 20.4044 9.81534 22.6525 12.2268C22.494 10.2915 23.7777 9.00417 25.7065 9.00417Z" fill="white"/>
<path fill-rule="evenodd" clip-rule="evenodd" d="M41.6138 23.9646C41.6138 26.2151 39.5242 27.1806 37.4369 27.1806C35.1888 27.1806 33.0993 25.4128 33.0993 22.9991C33.0993 18.0131 39.8479 17.2085 43.5426 17.2085C46.1122 17.2085 49.3268 17.3694 51.4164 18.6567C54.3074 20.2658 54.6289 23.1622 54.6289 26.0564V35.2261C54.6289 35.8676 54.4681 37.4767 55.4325 37.4767C55.754 37.4767 56.2362 37.4767 56.5577 37.4767C58.165 37.4767 58.9687 38.764 58.9687 40.21C58.9687 42.9432 56.2362 43.9087 53.9881 43.9087C51.7401 43.9087 49.329 43.1042 48.5254 40.8514C46.1144 42.9432 43.2233 43.9087 40.1716 43.9087C35.8318 43.9087 31.4941 41.4973 31.4941 36.6721C31.4941 25.0909 46.5966 31.0402 46.5966 24.6082C46.5966 22.8404 44.8285 21.8749 43.2233 21.8749C42.4197 21.8749 41.6182 22.0358 41.6182 23.0013V23.9646H41.6138ZM46.5921 32.1666C45.1455 33.6126 39.5242 32.9712 39.5242 35.5413C39.5242 37.1504 40.9709 37.7963 42.2545 37.7963C45.1455 37.7963 46.5921 36.0263 46.5921 33.1299V32.1666Z" fill="white"/>
<path fill-rule="evenodd" clip-rule="evenodd" d="M65.3937 27.0199C65.3937 26.3762 65.5544 23.643 64.59 23.643C64.1078 23.643 63.6256 23.9648 62.9827 23.9648C61.3776 23.9648 60.7346 22.6775 60.7346 21.2293C60.7346 19.4593 61.5383 17.8502 63.1456 17.8502C64.5922 18.0111 65.5544 18.3329 66.5189 18.3329C67.644 18.3329 68.6084 18.0111 69.7335 17.8502C71.1779 17.8502 71.3387 18.8156 71.3387 19.942V23.643C72.1423 19.6202 75.0334 17.3696 79.2125 17.3696C82.5857 17.3696 85.6396 19.942 85.6396 23.482C85.6396 25.8957 84.0323 28.3072 81.4627 28.3072C79.5361 28.3072 78.0873 27.0221 78.0873 25.0912C78.0873 24.4475 78.248 23.8039 78.5695 23.1624C73.1068 22.8406 72.946 30.2381 72.946 34.0978C72.946 34.7436 72.7853 37.4769 73.9104 37.4769C74.3926 37.4769 74.8748 37.1551 75.5156 37.1551C77.1229 37.1551 77.6051 38.4424 77.6051 39.8884C77.6051 41.8215 76.8014 43.2675 75.1941 43.2675C72.6246 43.2675 70.6957 42.7848 68.6062 42.7848C66.8381 42.7848 64.9115 43.2675 63.1434 43.2675C61.5361 43.2675 60.7324 41.8215 60.7324 39.8884C60.7324 38.4424 61.3754 37.1551 62.9805 37.1551C63.6234 37.1551 64.1056 37.4769 64.5878 37.4769C65.5522 37.4769 65.3915 34.7436 65.3915 34.0978V27.0199H65.3937Z" fill="white"/>
<path fill-rule="evenodd" clip-rule="evenodd" d="M92.0658 27.0199C92.0658 26.3762 92.2266 23.643 91.2622 23.643C90.6192 23.643 90.137 23.9648 89.6548 23.9648C88.0475 23.9648 87.4045 22.6775 87.4045 21.2293C87.4045 19.4593 88.2082 17.8502 89.8156 17.8502C91.2622 18.0111 92.2244 18.3329 93.1888 18.3329C94.3139 18.3329 95.2783 18.0111 96.4013 17.8502C97.8479 17.8502 97.8479 18.8156 97.8479 19.942V23.643C98.8123 19.6202 101.703 17.3696 105.88 17.3696C109.256 17.3696 112.307 19.942 112.307 23.482C112.307 25.8957 110.7 28.3072 108.13 28.3072C106.202 28.3072 104.597 27.0221 104.597 25.0912C104.597 24.4475 104.918 23.8039 105.239 23.1624C99.7767 22.8406 99.6159 30.2381 99.6159 34.0978C99.6159 34.7436 99.4552 37.4769 100.58 37.4769C101.063 37.4769 101.545 37.1551 102.185 37.1551C103.793 37.1551 104.275 38.4424 104.275 39.8884C104.275 41.8215 103.471 43.2675 101.864 43.2675C99.2945 43.2675 97.3657 42.7848 95.2761 42.7848C93.5081 42.7848 91.5814 43.2675 89.8134 43.2675C88.206 43.2675 87.4023 41.8215 87.4023 39.8884C87.4023 38.4424 88.0453 37.1551 89.6526 37.1551C90.1348 37.1551 90.617 37.4769 91.26 37.4769C92.2244 37.4769 92.0636 34.7436 92.0636 34.0978V27.0199H92.0658Z" fill="white"/>
<path fill-rule="evenodd" clip-rule="evenodd" d="M123.238 31.8448C122.273 31.8448 120.99 31.523 120.99 32.9734C120.99 35.7067 123.238 37.7985 125.97 37.7985C130.147 37.7985 129.826 33.9366 133.683 33.9366C135.449 33.9366 136.896 35.0608 136.896 36.9939C136.896 39.0858 135.291 40.8514 133.683 41.98C131.272 43.426 128.542 43.9087 125.809 43.9087C117.936 43.9087 112.955 38.6009 112.955 30.7206C112.955 23.0013 117.775 17.2085 125.649 17.2085C128.54 17.2085 131.754 17.8521 133.844 19.7831C136.253 21.8749 137.378 25.2518 137.378 28.307C137.378 31.2034 137.056 31.8448 134.165 31.8448H123.238ZM127.736 26.5369C128.54 26.5369 129.343 26.6978 129.343 25.7324C129.343 24.9278 128.861 24.1255 128.379 23.6427C127.575 22.9991 126.774 22.6773 125.809 22.6773C124.363 22.6773 123.401 22.9991 122.436 23.9646C121.954 24.4473 121.15 25.2496 121.15 25.8933C121.15 26.6978 122.758 26.5369 123.24 26.5369H127.736Z" fill="white"/>
<path fill-rule="evenodd" clip-rule="evenodd" d="M150.393 34.0953C150.393 34.7411 150.232 37.4744 151.357 37.4744C151.84 37.4744 152.322 37.1526 152.963 37.1526C154.57 37.1526 155.052 38.4399 155.052 39.8859C155.052 41.819 154.248 43.265 152.161 43.265C150.074 43.265 148.145 42.7823 146.216 42.7823C144.29 42.7823 142.521 43.265 140.914 43.265C138.985 43.265 138.182 41.819 138.182 39.8859C138.182 38.4399 138.664 37.1526 140.271 37.1526C140.914 37.1526 141.396 37.4744 141.876 37.4744C143.001 37.4744 142.841 34.7411 142.841 34.0953V25.2496C142.841 23.4796 142.841 23.3209 141.233 23.3209C139.307 23.3209 138.182 22.8381 138.182 20.7485C138.182 18.6566 138.985 17.8521 140.914 17.8521C142.361 17.8521 142.841 18.013 142.841 16.2452C143.001 10.9373 147.661 8.68457 152.48 8.68457C154.088 8.68457 156.014 9.00639 157.461 9.81095C159.066 10.6155 160.352 12.2246 160.352 14.1533C160.352 16.2452 158.905 17.8521 156.657 17.8521C155.05 17.8521 153.445 16.7257 153.445 14.9579C153.445 14.4752 153.606 14.1533 153.766 13.6728C153.445 13.5119 153.284 13.5119 152.802 13.5119C151.034 13.5119 150.391 14.6383 150.391 16.2474C150.391 17.8565 150.552 17.8543 152.159 17.8543C154.088 17.8543 155.534 18.0152 155.534 20.4289C155.534 22.6794 154.57 23.3231 152.48 23.3231C150.552 23.3231 150.391 23.1622 150.391 25.2518V34.0953H150.393Z" fill="white"/>
<path fill-rule="evenodd" clip-rule="evenodd" d="M181.725 30.2359C181.725 38.2793 177.709 43.9068 169.192 43.9068C160.836 43.9068 156.338 38.762 156.338 30.5578C156.338 22.1948 160.836 17.2065 169.192 17.2065C177.064 17.2065 181.725 22.3557 181.725 30.2359ZM169.192 23.3212C165.176 23.3212 164.212 27.3417 164.212 30.56C164.212 33.4564 165.176 37.801 168.71 37.801C170.478 37.801 171.923 37.3182 172.726 35.7091C173.53 34.1 173.851 32.1713 173.851 30.5622C173.851 27.3417 173.048 23.3212 169.192 23.3212Z" fill="white"/>
<path fill-rule="evenodd" clip-rule="evenodd" d="M185.261 27.0196C185.261 26.3759 185.419 23.6427 184.294 23.6427C183.812 23.6427 183.33 23.9645 182.689 23.9645C181.082 23.9645 180.6 22.6772 180.6 21.229C180.6 19.459 181.403 17.8499 185.098 17.8499C186.062 18.0108 187.029 18.3326 188.152 18.3326C189.279 18.3326 190.4 18.0108 191.527 17.8499C193.132 17.8499 192.813 19.2981 192.813 20.5853V32.1665C192.813 33.132 192.813 34.8998 193.454 35.8653C193.936 36.6698 195.061 37.3157 196.184 37.3157C197.633 37.3157 198.915 36.6698 199.718 35.3826C200.685 33.7734 200.846 32.1665 200.846 30.3965V27.0174C200.846 26.3737 201.004 23.6405 199.881 23.6405C199.399 23.6405 198.915 23.9623 198.274 23.9623C196.666 23.9623 196.184 22.675 196.184 21.2268C196.184 19.4568 196.988 17.8477 200.363 17.8477C201.328 18.0086 202.29 18.3304 203.417 18.3304C204.54 18.3304 205.665 18.0086 206.788 17.8477C208.556 17.8477 208.396 18.974 208.396 20.2613V34.0931C208.396 34.7389 208.233 37.4722 209.199 37.4722C209.681 37.4722 210.164 37.1504 210.804 37.1504C212.412 37.1504 213.053 38.4377 213.053 39.8837C213.053 41.8168 212.088 43.2628 210.162 43.2628C208.876 43.2628 207.748 42.7801 206.628 42.7801C205.663 42.7801 204.538 43.2628 203.574 43.2628C201.806 43.2628 201.806 41.6537 201.806 40.6882V39.7227C200.037 42.456 196.503 43.902 193.291 43.902C190.719 43.902 187.826 42.9366 186.379 40.8447C185.094 38.7573 185.256 35.8587 185.256 33.4494V27.0196H185.261Z" fill="white"/>
<path fill-rule="evenodd" clip-rule="evenodd" d="M219.643 27.0199C219.643 26.3762 219.806 23.643 218.679 23.643C218.197 23.643 217.714 23.9648 217.071 23.9648C215.466 23.9648 214.986 22.6775 214.986 21.2293C214.986 19.4593 215.79 17.8502 217.395 17.8502C218.84 18.0111 219.808 18.3329 220.771 18.3329C221.893 18.3329 222.86 18.0111 223.983 17.8502C225.427 17.8502 225.427 18.8156 225.427 19.942V23.643C226.392 19.6202 229.285 17.3696 233.46 17.3696C236.835 17.3696 239.726 19.942 239.726 23.482C239.726 25.8957 238.282 28.3072 235.551 28.3072C233.783 28.3072 232.18 27.0221 232.18 25.0912C232.18 24.4475 232.5 23.8039 232.821 23.1624C227.361 22.8406 227.196 30.2381 227.196 34.0978C227.196 34.7436 227.037 37.4769 228.16 37.4769C228.642 37.4769 229.127 37.1551 229.767 37.1551C231.375 37.1551 231.857 38.4424 231.857 39.8884C231.857 41.8215 231.053 43.2675 229.444 43.2675C226.713 43.2675 224.787 42.7848 222.86 42.7848C221.092 42.7848 219.161 43.2675 217.395 43.2675C215.79 43.2675 214.986 41.8215 214.986 39.8884C214.986 38.4424 215.469 37.1551 217.071 37.1551C217.717 37.1551 218.199 37.4769 218.679 37.4769C219.806 37.4769 219.643 34.7436 219.643 34.0978V27.0199Z" fill="white"/>
<path fill-rule="evenodd" clip-rule="evenodd" d="M362 30.0771C362 30.5599 361.518 31.0404 361.518 31.0404L335.005 57.4232C334.041 58.5474 333.4 57.9059 333.724 57.1014C334.365 55.8141 335.329 54.3681 336.291 51.1521C337.74 46.4857 337.74 42.6238 337.095 40.3711C336.613 38.2836 334.041 33.939 328.422 33.939C321.189 33.939 319.104 40.5342 319.262 42.9456C319.421 44.5547 319.262 46.9662 321.834 49.2189C323.76 50.828 325.529 50.3475 326.009 50.1866C326.491 50.1866 327.457 49.5408 327.457 51.1521C327.457 52.9221 325.85 55.1727 324.886 56.2969C323.758 57.2623 320.224 60 315.085 60C312.031 60 308.334 58.7127 305.767 55.6554C303.836 53.4048 302.55 50.8302 301.427 47.1315C299.179 40.3732 298.855 35.3872 298.855 30.0793C298.855 25.2542 299.338 19.9442 301.427 13.1903C302.392 9.65248 304.157 6.43424 305.767 4.3424C308.176 1.28509 312.033 0 315.085 0C320.224 0 323.758 2.7333 324.886 3.85968C325.85 4.82514 327.457 7.07568 327.457 9.00661C327.457 10.4548 326.491 9.81114 326.009 9.81114C325.526 9.65023 323.76 9.16754 321.834 10.7767C319.262 13.0272 319.421 15.6017 319.262 17.0499C319.104 19.6223 321.189 26.0565 328.422 26.0565C334.043 26.0565 336.615 21.8751 337.095 19.6224C337.74 17.3718 337.74 13.5099 336.291 9.00661C335.327 5.62748 334.365 4.34237 333.724 2.89417C333.402 2.25053 334.043 1.44598 335.005 2.57236L361.518 28.9508C361.518 28.9486 362 29.4335 362 30.0771Z" fill="white"/>
<path fill-rule="evenodd" clip-rule="evenodd" d="M264.633 29.7552C264.633 30.3988 265.274 30.8815 265.274 30.8815L293.393 57.9058C294.192 58.5472 294.358 57.9058 294.192 57.423C294.034 57.1012 293.873 56.9403 293.07 55.653C285.359 44.5545 285.517 29.7552 285.517 29.7552C285.517 29.7552 285.359 14.9558 293.07 4.01821C293.873 2.73092 294.034 2.57001 294.192 2.08948C294.355 1.60674 294.192 0.963112 293.393 1.60676L265.274 28.6288C265.274 28.6266 264.633 29.1115 264.633 29.7552Z" fill="white"/>
</g>
<defs>
<clipPath id="clip0_183_515">
<rect width="362" height="60" fill="white"/>
</clipPath>
</defs>
</svg>
