<svg width="240" height="80" viewBox="0 0 240 80" fill="none" xmlns="http://www.w3.org/2000/svg">
<g clip-path="url(#clip0_183_478)">
<path d="M224.117 69.9271L226.512 67.0595C228.17 68.4276 229.907 69.2974 232.016 69.2974C233.674 69.2974 234.677 68.6405 234.677 67.5623V67.508C234.677 66.4842 234.046 65.9541 230.963 65.1658C227.25 64.219 224.857 63.1906 224.857 59.5346V59.4803C224.857 56.1368 227.541 53.9306 231.308 53.9306C233.992 53.9306 236.286 54.7733 238.154 56.2728L236.046 59.3261C234.414 58.1936 232.809 57.5095 231.253 57.5095C229.698 57.5095 228.883 58.2207 228.883 59.1133V59.1677C228.883 60.3772 229.671 60.7714 232.859 61.5868C236.599 62.5609 238.703 63.9019 238.703 67.1139V67.1683C238.703 70.8242 235.91 72.8764 231.934 72.8764C229.141 72.8764 226.325 71.9023 224.112 69.9316L224.117 69.9271ZM208.004 54.1933H212.057V62.2438L219.534 54.1933H224.43L216.927 62.0082L224.775 72.6137H219.905L214.192 64.7717L212.062 66.9825V72.6137H208.009V54.1978L208.004 54.1933ZM199.235 63.1407C201.212 63.1407 202.341 62.0897 202.341 60.5358V60.4814C202.341 58.7463 201.131 57.8493 199.153 57.8493H195.122V63.1362H199.23L199.235 63.1407ZM191.074 54.1933H199.498C201.842 54.1933 203.66 54.8503 204.871 56.0598C205.895 57.0882 206.449 58.5333 206.449 60.2686V60.3228C206.449 63.2948 204.843 65.1658 202.5 66.0311L207.002 72.6092H202.264L198.315 66.7152H195.127V72.6092H191.074V54.1933ZM185.334 63.4533V63.3989C185.334 60.2413 183.018 57.6091 179.753 57.6091C176.488 57.6091 174.221 60.1869 174.221 63.3445V63.3989C174.221 66.5565 176.538 69.1887 179.802 69.1887C183.067 69.1887 185.334 66.6109 185.334 63.4533ZM169.982 63.4533V63.3989C169.982 58.1619 174.117 53.8762 179.802 53.8762C185.488 53.8762 189.573 58.1121 189.573 63.3492V63.4034C189.573 68.6405 185.438 72.9263 179.753 72.9263C174.067 72.9263 169.982 68.6904 169.982 63.4533ZM142.729 54.1933H147.071L150.89 66.6653L155.025 54.1434H158.502L162.637 66.6653L166.455 54.1933H170.693L164.401 72.7405H160.873L156.712 60.6898L152.55 72.7405H149.022L142.729 54.1933ZM132.169 57.9309H126.56V54.1933H141.83V57.9309H136.222V72.6137H132.169V57.9309ZM111.091 54.1933H124.997V57.7995H115.121V61.5369H123.812V65.1432H115.121V69.0121H125.128V72.6182H111.091V54.2025L111.091 54.1933ZM92.5967 54.1933H96.3372L104.974 65.5327V54.1933H108.978V72.6092H105.528L96.6001 60.9028V72.6092H92.5967V54.1933ZM225.963 30.5133H239.868V34.1195H229.993V37.8569H238.685V41.4631H229.993V45.3321H240V48.9381H225.963V30.5224V30.5133ZM207.269 30.5133H211.009L219.646 41.8527V30.5133H223.65V48.9291H220.2L211.272 37.2227V48.9291H207.269V30.5133ZM200.713 30.5133H204.766V48.9291H200.713V30.5133ZM191.758 39.4606C193.735 39.4606 194.864 38.4096 194.864 36.8558V36.8014C194.864 35.0663 193.654 34.1692 191.678 34.1692H187.647V39.4562H191.755L191.758 39.4606ZM183.597 30.5133H192.021C194.366 30.5133 196.183 31.1702 197.394 32.3797C198.419 33.4082 198.972 34.8533 198.972 36.5884V36.6428C198.972 39.6148 197.366 41.4857 195.023 42.351L199.525 48.9291H194.787L190.838 43.0351H187.65V48.9291H183.597V30.5133ZM174.96 41.223L172.512 35.252L170.064 41.223H174.96ZM170.693 30.3819H174.435L182.332 48.9291H178.093L176.406 44.7975H168.613L166.926 48.9291H162.791L170.69 30.3819H170.693ZM143.1 30.5133H147.471L152.319 38.3009L157.165 30.5133H161.536V48.9291H157.505V36.9056L152.319 44.7702H152.214L147.076 36.9826V48.9291H143.1V30.5133ZM134.305 41.3271H129.616V45.3773H134.435C136.227 45.3773 137.305 44.7476 137.305 43.3795V43.3251C137.305 42.0883 136.386 41.3271 134.305 41.3271ZM136.281 35.9587C136.281 34.7492 135.334 34.0651 133.62 34.0651H129.616V37.9612H133.357C135.148 37.9612 136.281 37.3812 136.281 36.0131V35.9587ZM125.668 30.5133H134.227C136.336 30.5133 137.996 31.0932 139.047 32.1441C139.89 32.9868 140.312 34.0107 140.312 35.2746V35.329C140.312 37.4085 139.206 38.5637 137.891 39.3022C140.021 40.1176 141.341 41.3544 141.341 43.8279V43.8823C141.341 47.2482 138.602 48.9336 134.44 48.9336H125.673V30.5178L125.668 30.5133ZM107.577 41.0373V30.5133H111.63V40.933C111.63 43.9322 113.131 45.486 115.606 45.486C118.082 45.486 119.583 43.9865 119.583 41.0644V30.5133H123.636V40.9059C123.636 46.4827 120.504 49.219 115.552 49.219C110.601 49.219 107.572 46.4556 107.572 41.0373H107.577ZM91.3318 46.2471L93.7257 43.3795C95.385 44.7476 97.1217 45.6174 99.2299 45.6174C100.889 45.6174 101.891 44.9604 101.891 43.8823V43.8279C101.891 42.804 101.261 42.2741 98.178 41.4857C94.4648 40.539 92.0708 39.5105 92.0708 35.8546V35.8002C92.0708 32.4567 94.7548 30.2506 98.5225 30.2506C101.207 30.2506 103.501 31.0931 105.369 32.5927L103.261 35.6461C101.628 34.5136 100.023 33.8295 98.4681 33.8295C96.913 33.8295 96.0969 34.5407 96.0969 35.4332V35.4876C96.0969 36.6971 96.8859 37.0914 100.073 37.9068C103.814 38.8808 105.917 40.2217 105.917 43.4338V43.4882C105.917 47.1442 103.125 49.1963 99.1482 49.1963C96.3554 49.1963 93.5397 48.2223 91.3273 46.2516L91.3318 46.2471ZM192.52 6.83323H196.573V21.5659H205.763V25.2491H192.52V6.83773V6.83323ZM176.456 6.83323H190.361V10.4395H180.488V14.1769H189.178V17.7831H180.488V21.652H190.493V25.2581H176.456V6.83773V6.83323ZM165.266 10.5708H159.657V6.83323H174.929V10.5708H169.321V25.2536H165.266V10.5708ZM154.97 17.543L152.522 11.572L150.073 17.543H154.97ZM150.704 6.70187H154.444L162.343 25.2491H158.104L156.417 21.1174H148.622L146.936 25.2491H142.801L150.699 6.70187H150.704ZM125.717 16.0932V16.0388C125.717 10.8018 129.666 6.51614 135.329 6.51614C138.806 6.51614 140.883 7.67592 142.598 9.35665L140.016 12.3285C138.594 11.0374 137.148 10.2491 135.302 10.2491C132.196 10.2491 129.957 12.8269 129.957 15.9845V16.0388C129.957 19.1964 132.141 21.8286 135.302 21.8286C137.41 21.8286 138.699 20.9859 140.148 19.6722L142.729 22.2771C140.833 24.3022 138.724 25.5662 135.17 25.5662C129.748 25.5662 125.717 21.3847 125.717 16.0932ZM112.342 6.83323H116.395V21.5659H125.586V25.2491H112.342V6.83773V6.83323ZM103.179 17.543L100.731 11.572L98.2822 17.543H103.179ZM98.9126 6.70187H102.653L110.551 25.2491H106.312L104.625 21.1174H96.8315L95.1447 25.2491H91.0098L98.9079 6.70187H98.9126Z" fill="white"/>
<path d="M37.1907 0.102564C59.243 -1.46525 78.3919 15.1263 79.9611 37.1611C81.5302 59.1958 64.9254 78.3296 42.873 79.8974C20.8207 81.4652 1.67171 64.8737 0.102648 42.8389C-1.46642 20.8042 15.1384 1.67038 37.1907 0.102564Z" fill="white"/>
<path d="M66.5723 54.2473C66.5723 55.8148 65.3526 56.517 64.1467 56.517C61.8026 56.517 61.0681 56.1001 60.2294 54.2925L53.2651 40.9371L52.2088 38.6585V54.4738C52.2088 55.8193 50.9892 56.5215 49.7832 56.5215C48.5771 56.5215 47.3574 55.8193 47.3574 54.4738V33.0907C47.3574 30.8617 45.3217 29.045 42.8189 29.045C40.3163 29.045 38.7657 30.318 38.7657 32.2118C38.7657 33.6161 39.6362 34.7669 40.5566 35.9901C41.6674 37.4625 42.9278 39.1342 42.9278 41.6122C42.9278 47.3022 38.022 49.8529 33.1617 49.8529C27.2721 49.8529 23.6812 46.2196 23.6812 42.858V24.2747L13.8018 42.9441C13.4573 43.6644 12.6276 44.113 11.6346 44.113C11.24 44.113 10.8412 44.0405 10.4784 43.9C9.77114 43.6282 9.19986 43.1027 8.94592 42.4957C8.75554 42.0426 8.75554 41.5715 8.92778 41.1728L19.0611 22.1997C20.775 19.1056 22.4344 18.4758 24.4022 18.4758C27.2813 18.4758 28.8681 20.442 28.8681 24.012V40.6563C28.8681 43.2975 31.0308 44.6792 33.1662 44.6792C35.1566 44.6792 37.3011 43.4516 37.3011 41.4717C37.3011 39.9678 36.4261 38.7263 35.5012 37.4171C34.4449 35.9221 33.3521 34.3727 33.3521 32.2162C33.3521 27.1333 36.8886 24.0798 42.8644 24.0527C47.4118 24.0527 51.3836 27.1152 53.7912 32.0578L60.6601 44.9466L60.796 45.2364L61.7119 46.9625V31.9672C61.7119 30.6216 62.9316 29.9194 64.1375 29.9194C65.3437 29.9194 66.5633 30.6216 66.5633 31.9672V54.2565L66.5723 54.2473Z" fill="#121212"/>
</g>
<defs>
<clipPath id="clip0_183_478">
<rect width="240" height="80" fill="white"/>
</clipPath>
</defs>
</svg>
