<svg width="143" height="100" viewBox="0 0 143 100" fill="none" xmlns="http://www.w3.org/2000/svg">
<g clip-path="url(#clip0_183_457)">
<path d="M44.1867 40.4951C44.1867 40.4951 28.8857 40.4951 28.1231 40.4951C27.9324 40.8761 27.9324 41.3046 27.7417 41.9237C28.9334 41.9237 30.7447 41.9237 31.5551 43.1142C31.9364 43.4951 31.9364 44.1142 31.9364 44.5427C31.9364 44.9237 31.9364 45.5427 31.7457 45.9713L19.0664 83.3046C20.2581 83.3046 27.9324 83.3046 28.5044 83.3046C28.6951 82.4951 33.1281 69.638 33.1281 69.638H44.5681C53.1957 69.638 60.4411 62.8284 60.4411 54.3523C60.4411 54.1618 60.4411 54.1618 60.4411 53.9713C60.4887 42.5427 52.6237 40.7332 44.1867 40.4951ZM48.6197 59.2094C47.1897 60.638 45.1877 61.3999 43.3764 61.3999H35.9404L40.3734 48.7332H42.3754C45.1877 48.7332 47.8094 48.7332 49.4301 50.3523C50.2404 51.1618 50.8601 52.3523 50.8601 53.9713C50.8124 55.9713 50.0497 57.7808 48.6197 59.2094Z" fill="white"/>
<path d="M109.538 75.0665H106.726C106.726 75.0665 108.537 41.7332 108.537 40.4951C107.536 40.4951 95.8577 40.4951 95.0473 40.4951C94.8567 40.8761 94.8567 41.3046 94.666 41.9237H94.8567C97.4783 41.9237 99.099 43.5427 99.099 46.3523L98.2887 66.4475C98.2887 66.4475 97.4783 82.1142 97.4783 83.3046C98.67 83.3046 114.972 83.3046 115.782 83.3046C116.164 82.6856 135.707 42.1142 136.517 40.4951C135.087 40.4951 127.079 40.4951 126.46 40.4951C125.84 41.1142 109.538 75.0665 109.538 75.0665Z" fill="white"/>
<path d="M61.871 64.638C59.44 67.4475 58.0576 70.876 58.0576 73.876C58.0576 79.9237 62.4906 84.1141 69.1163 84.1141C72.5483 84.1141 76.171 83.1141 79.174 81.4951C80.9853 80.4951 81.7956 80.0665 83.9883 78.3046C85.9903 79.9237 87.182 80.9237 91.043 83.5427L91.6626 83.9237L94.4749 80.7332C93.0449 79.7332 92.6636 79.3046 90.8523 77.9237C89.041 76.4951 88.6596 76.1141 87.4203 74.9237C88.8503 73.4951 89.2316 72.7332 90.614 70.6856C92.2346 68.0665 92.8066 66.876 93.8076 63.876H89.5653C88.5643 66.3046 88.1353 66.876 87.1343 68.6856C86.324 70.1141 85.7043 70.6856 84.5126 72.1141C83.0826 70.9237 81.5096 69.1141 79.2693 66.0665C77.2673 63.4475 76.2663 61.8284 75.456 59.8284C78.2683 58.3999 81.0806 56.6379 83.321 54.8284C86.1333 52.3999 87.754 49.3999 87.754 46.3999C87.754 42.3999 84.5603 39.5903 79.889 39.5903C73.2633 39.5903 68.2106 44.8284 68.2106 51.6379C68.2106 54.257 68.8303 56.638 69.6406 58.4475C65.732 60.8284 63.6823 62.5903 61.871 64.638ZM79.7936 43.3046C81.7956 43.3046 83.2256 44.4951 83.2256 46.3046C83.2256 48.1141 82.034 50.3046 80.2226 51.9237C78.4113 53.5427 76.2186 54.9237 73.9783 55.9237C73.3586 54.3046 73.1679 53.3046 73.1679 51.3046C73.1679 46.9237 76.1709 43.3046 79.7936 43.3046ZM71.7379 62.2094C72.3576 63.8284 72.7389 64.6379 73.7399 66.0189C75.3606 68.4475 77.1719 71.0189 78.7449 72.638L80.7469 74.8284L81.1283 75.2094C78.5066 77.8284 73.883 79.8284 70.451 79.8284C65.8273 79.8284 63.0149 77.2094 63.0149 73.0189C63.1103 69.0189 65.9226 65.4475 71.7379 62.2094Z" fill="white"/>
<path d="M13.4414 99.3526H107.726L111.778 91.1621H16.2537L13.4414 99.3526Z" fill="white"/>
<path d="M119.023 9.39997C110.968 5.39997 102.34 2.78092 94.2842 1.78092C81.2235 -0.0285995 68.9255 0.780924 57.6762 4.20949C46.9989 7.39997 37.3702 12.6381 29.1239 19.8762C20.2579 27.4952 13.0602 37.5428 8.00753 48.5904C3.00253 59.4476 0.380859 71.4952 0.380859 83.3523C1.38186 83.3523 8.62719 83.3523 9.62819 83.3523C9.81886 63.8762 17.2549 45.4 30.9352 31.7333C44.6155 17.8762 63.1102 10.2571 83.0349 10.019C93.9029 10.019 104.151 12.2095 113.78 16.4476C123.218 20.6857 131.655 27.1143 138.71 35.1143L142.714 26.6857C136.279 19.6381 128.271 13.7809 119.023 9.39997Z" fill="white"/>
</g>
<defs>
<clipPath id="clip0_183_457">
<rect width="143" height="100" fill="white"/>
</clipPath>
</defs>
</svg>
