<svg width="197" height="60" viewBox="0 0 197 60" fill="none" xmlns="http://www.w3.org/2000/svg">
<g clip-path="url(#clip0_183_473)">
<path d="M95.0432 6.33349L96.0845 17.8335L93.9187 18.5418L93.7938 18.3335C90.8783 12.7085 87.7963 11.4168 82.4236 10.7918C82.4236 10.7918 77.1758 10.2918 76.5927 10.2502V29.7085C77.7589 29.6668 81.8821 29.5002 81.8821 29.5002C87.4631 29.2502 88.5876 28.4168 90.0453 23.2918L90.087 23.0835H92.2944V40.3752H90.087L90.0453 40.1668C88.4627 35.2918 87.005 34.2085 81.8821 33.9585C81.8821 33.9585 77.1341 33.7502 76.5927 33.7502V46.8335C76.5927 52.5835 78.1754 54.4168 83.1733 54.4168C89.0874 54.4168 91.753 51.9585 96.2511 45.0835L96.376 44.8752L98.5417 45.9585L95.7096 58.8752H57.0593V55.7502H57.3508C63.7648 55.7502 65.3891 54.1252 65.3891 47.9585V18.2918C65.3891 11.6668 63.9314 9.41683 59.5999 9.41683H59.3083V6.33349H95.0432ZM129.154 6.33349H106.122V9.41683H106.413C110.578 9.41683 112.203 11.6252 112.203 17.2502V47.9585C112.203 54.1668 110.537 55.7502 104.164 55.7502H103.873V58.8752H142.565L145.355 45.9168L143.19 44.8335L143.065 45.0418C138.358 52.3752 135.609 54.3752 130.153 54.3752C124.697 54.3752 123.406 52.6252 123.406 46.5835V18.2918C123.406 11.5835 124.822 9.41683 129.195 9.41683H129.487V6.33349H129.154ZM19.2836 46.3752C19.2836 51.6668 21.9075 54.8335 26.2807 54.8335C30.9453 54.8335 34.6938 52.5418 37.7758 48.3335C40.8578 44.1252 42.5654 38.2502 42.5654 31.8335C42.5654 25.4168 40.483 19.6668 36.443 15.5835C34.6521 13.7918 32.528 12.3335 30.3206 11.3752C27.3635 10.0835 25.406 9.75016 19.3253 9.45849L19.2836 46.3752ZM8.37156 6.0835C12.3282 5.7085 17.2012 5.50016 21.491 5.50016C30.862 5.50016 36.0265 6.62516 41.191 9.7085C49.3959 14.7085 53.769 22.6252 53.769 32.6252C53.769 40.6252 51.2284 47.4168 46.4388 52.2502C41.6492 57.0835 34.9437 59.6668 27.0303 59.6668C25.6976 59.6668 24.1982 59.5835 22.4906 59.4585C20.3665 59.2918 17.9092 59.1252 15.1604 59.1252H0.25V56.0002H0.541545C6.62231 56.0002 8.08002 54.4585 8.08002 48.1252V18.1668C8.08002 10.7918 7.37199 9.79183 2.16586 9.79183H1.87431V6.66683L2.12421 6.62516C4.4982 6.37516 6.58065 6.16683 8.37156 6.0835ZM169.553 18.0835C169.054 19.4585 163.014 36.2918 162.765 37.0418H176.342C176.092 36.3335 170.053 19.4585 169.553 18.0835ZM175.592 6.33349L192.669 51.7502C193.668 54.5835 194.668 55.2918 196.417 55.7502L196.625 55.7918V58.8335H176.051V55.7085H176.342C179.841 55.7085 181.382 54.6252 181.382 52.1252C181.382 51.3335 181.215 50.4585 180.924 49.7085C180.924 49.7085 178.383 42.4168 178.216 42.0418H161.307C160.932 43.1668 159.016 49.1252 159.016 49.1252C158.641 50.2085 158.475 51.2502 158.475 52.2085C158.475 54.0835 159.474 55.2085 161.432 55.5418C162.431 55.7085 163.723 55.7502 164.014 55.7502H164.306V58.8752H145.189V55.7918H145.48C148.604 55.5835 149.603 54.3752 152.102 47.8752L168.221 6.37516L175.592 6.33349ZM146.438 23.3752C146.855 24.0002 147.479 24.0002 147.854 23.3752L161.224 1.50016C161.598 0.875164 161.307 0.333496 160.557 0.333496H133.694C132.944 0.333496 132.652 0.875164 133.027 1.50016L146.438 23.3752Z" fill="white"/>
</g>
<defs>
<clipPath id="clip0_183_473">
<rect width="197" height="60" fill="white"/>
</clipPath>
</defs>
</svg>
