<svg width="298" height="60" viewBox="0 0 298 60" fill="none" xmlns="http://www.w3.org/2000/svg">
<g clip-path="url(#clip0_183_464)">
<mask id="mask0_183_464" style="mask-type:luminance" maskUnits="userSpaceOnUse" x="-495" y="-1069" width="841" height="1174">
<path d="M-494.758 -1068.39V104.899H345.752V-1068.39H-494.758Z" fill="white"/>
</mask>
<g mask="url(#mask0_183_464)">
<mask id="mask1_183_464" style="mask-type:luminance" maskUnits="userSpaceOnUse" x="-495" y="-1069" width="841" height="1174">
<path d="M-494.758 104.904H345.755V-1068.39H-494.758V104.904Z" fill="white"/>
</mask>
<g mask="url(#mask1_183_464)">
<path d="M101.008 11.2761C98.4633 7.29744 93.3538 5.12675 88.4061 5.12675C79.2047 5.12675 70.4508 12.0096 70.4508 23.9982C70.4508 35.9856 79.2047 42.8684 88.4061 42.8684C93.3538 42.8684 98.3015 40.7031 101.008 36.5276V42.0958H108.41V5.99772H101.008V11.2761ZM89.5652 36.3725C83.5351 36.3725 77.9688 31.8869 77.9688 23.9982C77.9688 16.1096 83.5351 11.624 89.5652 11.624C95.4415 11.624 101.008 16.3415 101.008 23.9982C101.008 31.655 95.4415 36.3725 89.5652 36.3725ZM139.619 24.4957C139.619 31.9529 137.192 36.3968 131.387 36.3968C125.796 36.3968 122.858 32.8118 122.858 25.8588V5.99772H115.047V26.3577C115.047 38.7616 121.856 42.8468 129.667 42.8468C134.974 42.8468 138.619 39.9548 139.904 37.4862V43.0666C139.904 49.216 138.176 53.8809 131.508 53.8809C126.546 53.8809 124.005 52.2657 123.009 47.8057H115.21C116.215 55.6242 121.858 59.9966 130.808 59.9966C142.787 59.9966 147.38 52.5475 147.38 42.5596V5.99772H139.619V24.4957ZM173.382 42.0945L186.806 5.99772H179.017L169.004 34.764L158.991 5.99772H150.744L164.24 42.0945H173.382ZM236.71 23.4171C236.71 16.5289 240.1 11.6604 246.577 11.6604C252.285 11.6604 255.139 15.1429 255.139 22.1107V42.0945H262.758V21.3125C262.758 9.68789 256.637 5.12675 248.754 5.12675C243.589 5.12675 238.391 7.94056 236.324 12.077V5.99772H229.018V42.0945H236.71V23.4171ZM205.571 42.8684C213.435 42.8684 219.932 38.349 222.042 30.966H214.447C213.17 34.9407 209.914 36.4817 205.571 36.4817C199.417 36.4817 195.396 31.841 194.977 26.0044H222.986C223.111 24.7438 223.131 23.8364 223.131 22.4006C223.131 12.7093 215.987 5.12675 205.645 5.12675C194.39 5.12675 187.432 13.1596 187.432 24.1438C187.432 34.2611 194.061 42.8684 205.571 42.8684ZM205.571 11.1521C211.679 11.1521 215.422 15.2117 215.535 20.5858H195.123C195.622 14.9339 199.517 11.1521 205.571 11.1521ZM297.9 31.4015C297.9 18.6915 276.374 22.2415 276.374 15.0014C276.374 12.4936 278.414 11.1049 282.469 11.1049C286.762 11.1049 289.284 13.13 289.363 16.2323H296.571C296.268 8.96522 290.495 5.12675 282.615 5.12675C274.444 5.12675 269.021 9.30768 269.021 15.7739C269.021 28.287 290.232 24.5011 290.232 32.1012C290.232 34.942 287.995 36.8943 283.558 36.8943C279.164 36.8943 275.613 34.493 275.068 30.6748H267.497C268.048 37.5644 274.031 42.8684 283.63 42.8684C293.816 42.8684 297.9 36.9603 297.9 31.4015ZM38.0054 42.0958H56.485V-0.00335063H44.7093C44.7093 14.667 42.3493 28.8803 38.0054 42.0958ZM31.8999 -0.00335063L-0.000976562 42.3601C23.1864 42.3601 42.2469 23.192 42.2469 -0.00335063H31.8999ZM177.614 56.4345H178.719V50.4725H177.614V56.4345ZM173.607 55.5595C172.146 55.5595 171.232 54.6696 171.232 53.436C171.232 52.2468 172.136 51.326 173.589 51.326C174.503 51.326 175.197 51.6334 175.743 52.0554L176.335 51.1831C175.577 50.6249 174.736 50.2905 173.56 50.2905C171.588 50.2905 170.063 51.5781 170.063 53.436C170.063 55.3289 171.565 56.5936 173.56 56.5936C174.736 56.5936 175.626 56.2754 176.38 55.7213L175.79 54.8463C175.163 55.3217 174.394 55.5728 173.607 55.5595ZM181.449 53.8917H184.811V52.9061H181.449V51.4608H185.772V50.4725H180.346V56.4345H185.963V55.4516H181.449V53.8917ZM165.527 50.2905C163.628 50.2905 162.053 51.5781 162.053 53.4454C162.053 55.3384 163.628 56.603 165.527 56.603C167.434 56.603 168.982 55.3384 168.982 53.4454C168.982 51.5781 167.434 50.2905 165.527 50.2905ZM165.527 55.5905C164.105 55.5905 163.196 54.6791 163.196 53.4454C163.196 52.2468 164.145 51.3084 165.527 51.3084C166.941 51.3084 167.838 52.2468 167.838 53.4454C167.838 54.6696 166.941 55.5905 165.527 55.5905ZM156.317 51.9826C156.317 51.57 156.85 51.3395 157.916 51.3395C158.648 51.3395 159.464 51.5552 160.226 51.8814L160.663 50.9822C159.804 50.5446 158.853 50.3207 157.89 50.3296C156.141 50.3296 155.172 51.0307 155.172 52.0459C155.172 54.4 159.925 53.436 159.925 54.7263C159.925 55.2251 159.304 55.5595 158.146 55.5595C157.222 55.5595 156.371 55.3384 155.459 54.8287L155.03 55.7685C156.072 56.3307 156.976 56.5693 158.138 56.5693C160.091 56.5693 161.07 55.7685 161.07 54.7263C161.07 52.2145 156.317 53.1582 156.317 51.9826ZM208.099 55.1941C207.564 55.4321 206.984 55.5539 206.398 55.5514C204.936 55.5514 204.022 54.6696 204.022 53.436C204.022 52.2468 204.928 51.3084 206.382 51.3395C207.299 51.3395 207.99 51.6239 208.536 52.0459L209.125 51.1736C208.369 50.6168 207.502 50.2905 206.35 50.2905C204.379 50.2905 202.855 51.5781 202.855 53.436C202.855 55.3289 204.358 56.5936 206.35 56.5936C207.377 56.5936 208.416 56.2821 209.174 55.7739V53.4629H208.099V55.1941ZM266.821 55.1941C266.285 55.4321 265.704 55.5539 265.118 55.5514C263.658 55.5514 262.743 54.6696 262.743 53.436C262.743 52.2468 263.65 51.3084 265.103 51.3395C266.017 51.3395 266.708 51.6239 267.257 52.0459L267.843 51.1736C267.088 50.6168 266.22 50.2905 265.071 50.2905C263.101 50.2905 261.574 51.5781 261.574 53.436C261.574 55.3289 263.076 56.5936 265.071 56.5936C266.095 56.5936 267.137 56.2821 267.891 55.7739V53.4629H266.821V55.1941ZM253.249 53.8917H256.609V52.9061H253.249V51.4608H257.567V50.4725H252.144V56.4345H257.76V55.4516H253.249V53.8917ZM275.33 52.3722C275.33 51.2518 274.544 50.4725 273.269 50.4725H269.441V56.4345H270.547V54.2422H272.326L274.009 56.4345H275.391L273.62 54.2085C274.558 54.0737 275.33 53.436 275.33 52.3722ZM270.547 53.2445V51.4608H273.269C273.892 51.4608 274.231 51.81 274.231 52.3722C274.231 52.8886 273.845 53.2445 273.152 53.2445H270.547ZM295.877 50.4725H292.184V56.4345H293.287V54.431H295.877C297.18 54.431 297.998 53.7245 297.998 52.5016C297.998 51.326 297.18 50.4725 295.877 50.4725ZM295.94 53.4454H293.287V51.4608H295.877C296.513 51.4608 296.869 51.9286 296.869 52.5165C296.869 53.049 296.513 53.4454 295.94 53.4454ZM247.385 50.4725H246.28V56.4345H251.365V55.4516H247.385V50.4725ZM186.509 51.4527H188.941V56.4345H190.046V51.4527H192.469V50.4725H186.509V51.4527ZM279.792 50.2905C277.893 50.2905 276.322 51.5781 276.322 53.4454C276.322 55.3384 277.893 56.603 279.792 56.603C281.701 56.603 283.251 55.3384 283.251 53.4454C283.251 51.5781 281.701 50.2905 279.792 50.2905ZM279.792 55.5905C278.373 55.5905 277.465 54.6791 277.465 53.4454C277.465 52.2468 278.412 51.3084 279.792 51.3084C281.212 51.3084 282.105 52.2468 282.105 53.4454C282.105 54.6696 281.212 55.5905 279.792 55.5905ZM289.48 53.8917C289.48 54.8854 288.867 55.5864 287.581 55.5864C286.286 55.5864 285.682 54.8773 285.682 53.8917V50.4725H284.578V54.0103C284.578 55.5042 285.707 56.6098 287.581 56.6098C289.456 56.6098 290.583 55.5298 290.583 54.0103V50.4725H289.48V53.8917ZM222.545 52.0311C222.545 52.9142 222.554 53.8283 222.615 54.9555L222.594 54.9636L218.709 50.4725H217.578V56.4345H218.661V54.8773C218.661 54.3771 218.661 52.832 218.619 51.9502L218.635 51.9435L222.506 56.4345H223.625V50.4725H222.545V52.0311ZM211.827 53.8917H215.187V52.9061H211.827V51.4608H216.148V50.4725H210.722V56.4345H216.338V55.4516H211.827V53.8917ZM241.386 50.4725L238.484 56.4345H239.677L240.359 54.9851H243.579L244.261 56.4345H245.453L242.545 50.4725H241.386ZM240.82 54.0184L241.973 51.6024L243.118 54.0184H240.82ZM194.528 53.8917H197.889V52.9061H194.528V51.4608H198.851V50.4725H193.423V56.4345H199.042V55.4516H194.528V53.8917ZM237.993 52.3722C237.993 51.2518 237.205 50.4725 235.935 50.4725H232.102V56.4345H233.207V54.2422H234.986L236.673 56.4345H238.054L236.283 54.2085C237.221 54.0737 237.993 53.436 237.993 52.3722ZM233.207 53.2445V51.4608H235.935C236.553 51.4608 236.896 51.81 236.896 52.3722C236.896 52.8886 236.505 53.2445 235.814 53.2445H233.207ZM226.367 53.8917H229.727V52.9061H226.367V51.4608H230.688V50.4725H225.265V56.4345H230.88V55.4516H226.367V53.8917Z" fill="white"/>
</g>
</g>
</g>
<defs>
<clipPath id="clip0_183_464">
<rect width="298" height="60" fill="white"/>
</clipPath>
</defs>
</svg>
