<svg width="242" height="80" viewBox="0 0 242 80" fill="none" xmlns="http://www.w3.org/2000/svg">
<path d="M104.601 40.7142C102.462 40.7142 101.392 42.3809 101.155 44.5237C100.798 46.7856 99.6098 54.8809 99.3721 56.9047C99.2533 58.0951 99.1345 59.4047 97.9461 59.8809C96.7577 60.357 95.3316 59.6428 94.1432 58.5713C92.9548 57.4999 74.7724 42.0237 74.7724 42.0237C73.7029 41.0713 72.3956 40.7142 71.2072 40.7142C68.4739 40.7142 65.8595 42.3809 65.8595 46.5475V72.2618C65.8595 74.2856 67.2855 75.5951 68.9493 75.5951C70.8507 75.5951 72.0391 74.4047 72.2768 72.4999C72.2768 72.4999 74.297 60.238 74.5347 58.8094C74.7724 57.2618 75.0101 55.9523 76.555 55.4761C77.9811 54.9999 79.2883 55.8332 81.1897 57.619C83.0912 59.2856 99.3721 74.0475 99.3721 74.0475C100.679 75.119 101.511 75.4761 103.294 75.4761C104.839 75.4761 107.81 74.7618 107.81 69.8809V44.4047C107.929 42.0237 106.384 40.7142 104.601 40.7142ZM221.301 68.2142C207.041 71.3094 190.878 67.9761 190.878 57.9761C190.878 50.357 197.89 47.2618 203.475 46.7856C209.298 46.3094 213.814 47.4999 216.191 49.9999C217.617 51.5475 217.261 53.5713 214.409 53.8094C211.794 53.9285 206.803 54.1666 202.643 54.2856C200.267 54.4047 199.078 55.5951 199.078 57.3809C199.078 58.6904 200.029 60.238 202.762 60.238C206.684 60.238 216.429 60.357 221.301 60.357C224.51 60.357 226.055 58.5713 226.055 54.8809C226.055 49.0475 220.707 40.119 205.139 40.119C190.997 40.119 180.777 47.1428 180.777 58.6904C180.777 74.9999 204.783 79.9999 222.252 73.9285C223.916 73.3332 225.461 72.1428 224.985 70.238C224.629 68.3332 223.322 67.738 221.301 68.2142ZM56.3523 68.2142C42.0916 71.3094 25.9295 67.9761 25.9295 57.9761C25.9295 50.357 32.941 47.2618 38.5264 46.7856C44.3495 46.3094 48.8654 47.4999 51.2422 49.9999C52.6683 51.5475 52.3118 53.5713 49.4596 53.8094C46.8452 53.9285 41.8539 54.1666 37.6946 54.2856C35.3178 54.4047 34.1294 55.5951 34.1294 57.3809C34.1294 58.6904 35.0801 60.238 37.8134 60.238C41.7351 60.238 51.4799 60.357 56.3523 60.357C59.561 60.357 61.1059 58.5713 61.1059 54.8809C61.1059 49.0475 55.7581 40.119 40.1902 40.119C26.0483 40.119 15.8281 47.1428 15.8281 58.6904C15.8281 74.9999 39.8337 79.9999 57.303 73.9285C58.9668 73.3332 60.5117 72.1428 60.0363 70.238C59.7987 68.3332 58.3726 67.738 56.3523 68.2142ZM166.516 52.4999C166.873 61.4285 167.705 68.8094 167.942 71.3094C168.299 74.6428 169.963 75.5951 171.745 75.5951C173.409 75.5951 175.192 74.7618 175.429 71.3094C175.667 68.4523 176.499 59.6428 176.974 50.9523C176.974 50.4761 176.737 50.357 176.38 50.357L167.111 51.9047C166.635 52.0237 166.516 52.2618 166.516 52.4999ZM171.626 39.8809C167.348 39.8809 166.16 43.2142 166.16 45.238C166.16 45.5951 166.16 46.6666 166.279 47.9761C166.279 48.2142 166.516 48.5713 166.873 48.4523L176.499 46.9047C176.855 46.7856 176.974 46.6666 176.974 46.4285V45.238C177.212 43.3332 175.905 39.8809 171.626 39.8809ZM157.485 54.0475C154.276 54.0475 144.293 54.1666 137.995 54.1666C134.905 54.1666 134.192 55.8332 134.192 57.2618C134.192 58.4523 135.024 59.9999 137.876 60.119C142.273 60.357 147.859 60.5951 150.354 60.7142C153.801 60.8332 153.919 62.738 152.731 64.1666C150.354 67.2618 144.65 69.2856 138.708 69.2856C130.983 69.2856 122.427 64.8809 122.427 57.857C122.427 51.3094 129.795 44.0475 151.424 47.1428C153.325 47.3809 155.227 47.0237 155.702 45.238C156.177 43.3332 154.989 42.1428 152.493 41.5475C147.621 40.238 143.105 39.9999 138.827 39.9999C124.21 39.9999 112.444 47.0237 112.444 58.3332C112.444 70.3571 124.091 76.3094 138.708 76.3094C154.989 76.3094 162.832 67.4999 162.832 59.6428C162.832 55.5951 160.812 54.0475 157.485 54.0475Z" fill="white"/>
<path d="M233.659 34.6429C204.306 13.2143 164.614 0 120.999 0C77.3855 0 37.6931 13.0952 8.33984 34.6429H233.659Z" fill="url(#paint0_linear_183_505)"/>
<defs>
<linearGradient id="paint0_linear_183_505" x1="120.999" y1="34.6083" x2="120.999" y2="-0.0345247" gradientUnits="userSpaceOnUse">
<stop stop-color="white" stop-opacity="0"/>
<stop offset="0.156" stop-color="white" stop-opacity="0.156"/>
<stop offset="0.324" stop-color="white" stop-opacity="0.324"/>
<stop offset="0.487" stop-color="white" stop-opacity="0.487"/>
<stop offset="0.639" stop-color="white" stop-opacity="0.639"/>
<stop offset="0.78" stop-color="white" stop-opacity="0.78"/>
<stop offset="0.905" stop-color="white" stop-opacity="0.905"/>
<stop offset="1" stop-color="white"/>
</linearGradient>
</defs>
</svg>
