<svg width="128" height="100" viewBox="0 0 128 100" fill="none" xmlns="http://www.w3.org/2000/svg">
<g clip-path="url(#clip0_183_508)">
<path d="M64.7378 44.2686C76.9428 44.2686 86.8369 34.3587 86.8369 22.1343C86.8369 9.90987 76.9428 0 64.7378 0C52.5328 0 42.6387 9.90987 42.6387 22.1343C42.6387 34.3587 52.5328 44.2686 64.7378 44.2686Z" fill="white"/>
<path d="M81.0318 40.0471C76.822 44.6192 69.3973 49.1913 59.8727 49.1913C52.4829 49.1913 46.1182 46.3118 42.0684 43.1169C17.9443 45.6508 0 49.2464 0 49.2464V59.0315L127.99 59.0165V38.8402C127.99 38.8402 106.061 38.705 81.0318 40.0471Z" fill="white"/>
<path d="M15.2103 87.6409V99.5644H0.00585938V67.8452H15.2103V82.1173H15.3003L24.2499 67.8452H42.4792L29.1297 84.2406L41.7292 99.5644H24.3299L15.3203 87.6409H15.2103Z" fill="white"/>
<path d="M128 98.2524C124.41 99.3491 119.696 100 115.476 100C100.436 100 89.3867 95.7185 89.3867 83.2642C89.3867 72.0067 100.091 67.1191 114.726 67.1191C118.791 67.1191 123.96 67.5698 128 68.8618V79.7637C125 77.9459 122.005 76.8142 117.716 76.8142C112.131 76.8142 106.556 79.5684 106.556 83.5646C106.556 87.5608 112.111 90.3151 117.716 90.3151C121.935 90.3151 125 89.1433 127.995 87.4106V98.2574H128V98.2524Z" fill="white"/>
<path d="M44.9688 67.8452H75.7075C83.6922 67.8452 86.3071 70.955 86.3071 75.7975C86.3071 81.2159 81.4723 83.5696 76.5025 83.84V83.9302C81.6023 84.3308 86.5721 84.9067 86.5721 91.3016C86.5721 95.478 83.9572 99.5644 75.1776 99.5644H44.9737V67.8452H44.9688ZM60.1732 93.1144H68.1028C71.0777 93.1144 72.0877 91.8825 72.0877 90.0596C72.0877 88.2368 71.0677 86.9298 68.1378 86.9298H60.1782V93.1144H60.1732ZM60.1732 81.2861H67.7479C70.6727 81.2861 71.8227 80.0992 71.8227 78.2764C71.8227 76.1881 70.6677 75.1465 67.9628 75.1465H60.1782V81.2861H60.1732Z" fill="white"/>
</g>
<defs>
<clipPath id="clip0_183_508">
<rect width="128" height="100" fill="white"/>
</clipPath>
</defs>
</svg>
