<svg width="296" height="60" viewBox="0 0 296 60" fill="none" xmlns="http://www.w3.org/2000/svg">
<g clip-path="url(#clip0_183_455)">
<path fill-rule="evenodd" clip-rule="evenodd" d="M210.974 6.60311C210.974 2.75747 214.24 0 218.048 0C221.856 0 224.825 2.75747 224.825 6.60311C224.825 10.4488 221.856 13.1427 218.048 13.1427C214.24 13.1427 210.974 10.4498 210.974 6.60311ZM212.627 17.6934H223.404V51.4776H212.627V17.6934ZM155.089 4.61623H165.867V51.4764H155.089V4.61623ZM90.8033 52.3116C100.678 52.3116 107.712 44.7463 107.712 34.6183C107.712 24.4892 100.872 16.9249 91.0581 16.9259C87.3826 16.9259 84.2848 18.0151 81.8326 20.0666V4.61728H71.0546V51.4776H80.9939V48.5931C83.446 50.9651 86.7378 52.3116 90.8033 52.3116ZM89.2548 26.2875C93.7721 26.2875 97.063 29.8104 97.063 34.6183C97.063 39.426 93.7721 42.8874 89.2548 42.8874C84.5437 42.8874 81.3158 39.4896 81.3158 34.6183C81.3158 29.6844 84.4786 26.2875 89.2548 26.2875ZM147.983 51.4776V17.6934H138.043V21.2194C135.655 18.8483 132.427 17.5653 128.234 17.5653C118.36 17.5653 111.26 24.4901 111.26 34.6183C111.26 44.7463 118.36 52.3116 128.234 52.3116C132.428 52.3116 135.655 50.8995 138.043 48.4003V51.4776H147.983ZM129.783 26.2875C134.495 26.2875 137.657 29.6813 137.657 34.6183C137.657 39.4907 134.494 42.8874 129.783 42.8874C125.202 42.8874 121.974 39.423 121.974 34.6183C121.974 29.8134 125.266 26.2875 129.783 26.2875ZM189.171 16.9249C178.33 16.9249 170.585 24.4892 170.585 34.6181C170.585 44.6827 178.333 52.3116 189.171 52.3116C200.079 52.3116 207.823 44.6827 207.823 34.6181C207.823 24.4892 200.074 16.9249 189.171 16.9249ZM189.235 26.4126C193.946 26.4126 196.981 29.7458 196.981 34.5536C196.981 39.426 193.883 42.8229 189.235 42.8239C184.525 42.8239 181.427 39.3615 181.427 34.6181C181.427 29.7448 184.525 26.4126 189.235 26.4126ZM236.699 39.8749L227.792 43.2728C229.794 49.1751 235.279 52.3116 242.955 52.3054C251.926 52.3054 257.604 48.0744 257.604 41.0859C257.604 33.4181 250.857 31.6477 245.682 30.2904C242.465 29.4463 239.857 28.7619 239.857 26.9186C239.857 25.5086 240.954 24.6756 243.147 24.6756C245.406 24.6756 247.021 25.7648 247.795 27.8807L256.707 24.4183C255.351 19.6772 250.317 16.9207 243.346 16.9207C234.763 16.9207 229.341 20.8997 229.341 27.4382C229.341 34.356 235.651 36.2378 240.745 37.7574C244.197 38.7866 247.09 39.6497 247.09 41.7983C247.09 43.3363 245.798 44.2974 243.346 44.2974C239.861 44.2974 237.602 42.6958 236.699 39.8749ZM295.944 33.9133C295.944 25.5825 289.36 16.8603 278.26 16.8603C268.451 16.8603 260.577 24.8786 260.577 34.6181C260.577 44.6827 267.675 52.3116 278.906 52.3116C286.316 52.3116 290.693 49.4751 293.317 46.2405L287.12 40.0717C285.184 42.4502 283.036 43.5924 279.227 43.5924C275.162 43.5924 272.129 41.541 271.033 37.761H295.685C295.863 36.4862 295.949 35.2003 295.944 33.9133ZM270.901 31.0922C271.806 26.9893 274.58 24.8734 278.518 24.8734C282.453 24.8734 285.035 27.2456 285.939 31.0922H270.901ZM31.4023 1.91918L58.4662 28.8024C58.7026 29.0374 58.89 29.3164 59.0177 29.6233C59.1455 29.9302 59.2111 30.2593 59.2109 30.5916C59.2105 30.9236 59.1444 31.2525 59.016 31.5593C58.8877 31.8662 58.6997 32.1448 58.463 32.3794L51.1246 39.6686L29.6034 18.2911L17.2224 30.5893L29.6034 42.8874L37.2793 35.2618L46.4207 44.3411L31.4076 59.2594C31.1712 59.4941 30.8906 59.6805 30.5819 59.8074C30.2732 59.9346 29.9423 60 29.6081 60C29.2738 60 28.943 59.9346 28.6341 59.8074C28.3253 59.6805 28.0448 59.4941 27.8086 59.2594L0.744625 32.3762C0.267825 31.9022 0 31.2594 0 30.5893C0 29.9192 0.267825 29.2764 0.744625 28.8024L27.8033 1.91918C28.0395 1.68438 28.3201 1.49813 28.6288 1.37105C28.9377 1.24398 29.2686 1.17857 29.6028 1.17857C29.9371 1.17857 30.2679 1.24398 30.5767 1.37105C30.8854 1.49813 31.1659 1.68438 31.4023 1.91918Z" fill="white"/>
</g>
<defs>
<clipPath id="clip0_183_455">
<rect width="296" height="60" fill="white"/>
</clipPath>
</defs>
</svg>
