<svg width="389" height="50" viewBox="0 0 389 50" fill="none" xmlns="http://www.w3.org/2000/svg">
<path d="M4.98047 3.26839C26.8544 1.30421 57.2167 2.9383 57.2167 2.9383V10.9454H36.6487V45.4247H26.5279V10.9454H5.30695L4.98047 3.26839Z" fill="white"/>
<path d="M175.45 33.0053C175.47 33.8757 175.315 34.7414 174.996 35.5513C174.677 36.3612 174.2 37.0992 173.592 37.7219C172.984 38.3445 172.258 38.8393 171.456 39.1772C170.654 39.5151 169.793 39.6892 168.924 39.6894C168.054 39.6897 167.193 39.5159 166.391 39.1785C165.589 38.841 164.863 38.3465 164.255 37.7242C163.647 37.1019 163.169 36.3641 162.849 35.5543C162.53 34.7446 162.375 33.879 162.394 33.0086C162.432 31.3007 163.136 29.6756 164.356 28.4809C165.576 27.2863 167.214 26.6171 168.92 26.6167C170.627 26.6163 172.266 27.2846 173.486 28.4786C174.706 29.6727 175.411 31.2975 175.45 33.0053Z" fill="white"/>
<path d="M113.742 2.61114V19.9325H85.9463V2.61114L75.499 3.26804V45.9342L85.9463 46.4049V27.7794H113.742V46.4049L124.196 45.9342V3.26804L113.742 2.61114ZM140.141 45.4244L164.301 3.26804H174.421L198.907 45.4244L187.48 46.4049L169.524 13.3962H168.545L150.262 46.078L140.141 45.4244ZM214.251 45.4244V3.59159H223.719V37.9076H257.02V45.4244C257.02 45.4244 235.146 49.9999 214.251 45.4244ZM273.344 45.7545V3.26804C273.344 3.26804 303.379 -0.000144977 318.721 3.59486V11.4385L284.032 11.7653V20.2626H304.032V28.4331H284.036V38.2376H319.377V46.0813C319.377 46.078 293.259 49.673 273.344 45.7545ZM383.366 2.93796V11.4385H345.495V19.9358H376.51C376.51 19.9358 384.019 23.5308 384.019 27.1258V38.2344C384.019 45.4244 376.51 47.3886 369.657 47.3886C359.21 47.3886 341.907 47.0585 336.03 46.0813V38.2376H374.878V28.7566H345.825C341.254 28.7566 336.357 26.1421 336.357 22.8739V10.128C336.357 5.88259 342.233 2.93796 346.804 2.93796H383.366Z" fill="white"/>
</svg>
